<?xml version="1.0" standalone="no"?>
<!DOCTYPE svg PUBLIC "-//W3C//DTD SVG 1.1//EN" "http://www.w3.org/Graphics/SVG/1.1/DTD/svg11.dtd" >
<svg xmlns="http://www.w3.org/2000/svg" xmlns:xlink="http://www.w3.org/1999/xlink" version="1.1">
<metadata>
Created by FontForge 20170731 at Fri Sep 29 14:18:23 2017
 By ,,,
Designed 2014 by JapanYoshi (UkiyoMoji Fonts)
Redesigned 2017 by JapanYoshi (UkiyoMoji Fonts)
Draft created on Fontstruct
</metadata>
<defs>
<font id="Digital-Desolation-Plus" horiz-adv-x="1100" >
  <font-face 
    font-family="Digital Desolation Plus"
    font-weight="400"
    font-stretch="extra-expanded"
    units-per-em="1000"
    panose-1="4 5 8 7 8 11 2 2 3 4"
    ascent="800"
    descent="-200"
    x-height="800"
    cap-height="802"
    bbox="-950 -300 2150 1101"
    underline-thickness="50"
    underline-position="-25"
    unicode-range="U+0020-FFFD"
  />
<missing-glyph horiz-adv-x="1200" 
d="M0 -100v1000h1200v-1000h-1200zM300 0h200v200h-200v-200zM300 300h800v400l-100 100h-900v-200h800v-100h-500l-100 -100v-100z" />
    <glyph glyph-name=".notdef" horiz-adv-x="1200" 
d="M0 -100v1000h1200v-1000h-1200zM300 0h200v200h-200v-200zM300 300h800v400l-100 100h-900v-200h800v-100h-500l-100 -100v-100z" />
    <glyph glyph-name=".null" horiz-adv-x="0" 
 />
    <glyph glyph-name="nonmarkingreturn" horiz-adv-x="333" 
 />
    <glyph glyph-name="space" unicode=" " horiz-adv-x="400" 
 />
    <glyph glyph-name="exclam" unicode="!" horiz-adv-x="300" 
d="M50 0v200h200v-200h-200zM50 300v500h200v-500h-200z" />
    <glyph glyph-name="quotedbl" unicode="&#x22;" horiz-adv-x="600" 
d="M50 500v300h200v-300h-200zM350 500v300h200v-300h-200z" />
    <glyph glyph-name="numbersign" unicode="#" 
d="M750 300v200h-400v-200h400zM150 0v100h-100v200h100v200h-100v200h100v100h200v-100h400v100h200v-100h100v-200h-100v-200h100v-200h-100v-100h-200v100h-400v-100h-200z" />
    <glyph glyph-name="dollar" unicode="$" 
d="M50 0v200h350v-200h-350zM700 0v200h150v100h-150v200h350v-400l-100 -100h-250zM50 300v400l100 100h250v-200h-150v-100h150v-200h-350zM450 0v800h200v-800h-200zM700 600v200h350v-200h-350z" />
    <glyph glyph-name="percent" unicode="%" 
d="M875 200v100h-50l-50 -50v-50h100zM675 0l-100 100v75l325 325h75l100 -100v-300l-100 -100h-300zM325 500l50 50v50h-100v-100h50zM175 300l-100 100v300l100 100h300l100 -100v-75l-325 -325h-75zM50 0l800 800h250l-800 -800h-250z" />
    <glyph glyph-name="ampersand" unicode="&#x26;" 
d="M150 0l-100 100v300l100 100v200l100 100h700v-200h-600v-100h100v-200h-200v-100h400v100h-100v200h500v-200h-200v-100h200v-200h-200l-100 100l-100 -100h-500z" />
    <glyph glyph-name="quotesingle" unicode="'" horiz-adv-x="300" 
d="M50 500v300h200v-300h-200z" />
    <glyph glyph-name="parenleft" unicode="(" horiz-adv-x="400" 
d="M150 0l-100 100v600l100 100h200v-200h-100v-400h100v-200h-200z" />
    <glyph glyph-name="parenright" unicode=")" horiz-adv-x="400" 
d="M50 0v200h100v400h-100v200h200l100 -100v-600l-100 -100h-200z" />
    <glyph glyph-name="asterisk" unicode="*" horiz-adv-x="900" 
d="M50 200v200l100 100l-100 100v200h200v-200h100v200h200v-200h100v200h200v-200l-100 -100l100 -100v-200h-200v200h-100v-200h-200v200h-100v-200h-200z" />
    <glyph glyph-name="plus" unicode="+" horiz-adv-x="700" 
d="M250 100v200h-200v200h200v200h200v-200h200v-200h-200v-200h-200z" />
    <glyph glyph-name="comma" unicode="," horiz-adv-x="300" 
d="M50 -100v300h200v-200l-100 -100h-100z" />
    <glyph glyph-name="hyphen" unicode="-" horiz-adv-x="500" 
d="M50 300v200h400v-200h-400z" />
    <glyph glyph-name="period" unicode="." horiz-adv-x="300" 
d="M50 0v200h200v-200h-200z" />
    <glyph glyph-name="slash" unicode="/" 
d="M50 0l800 800h250l-800 -800h-250z" />
    <glyph glyph-name="zero" unicode="0" 
d="M450 300v200h200v-200h-200zM850 200v400h-600v-400h600zM150 0l-100 100v600l100 100h800l100 -100v-600l-100 -100h-800z" />
    <glyph glyph-name="one" unicode="1" horiz-adv-x="400" 
d="M150 0v600h-100v200h300v-800h-200z" />
    <glyph glyph-name="two" unicode="2" 
d="M50 0v400l100 100h700v100h-800v200h900l100 -100v-300l-100 -100h-700v-100h800v-200h-1000z" />
    <glyph glyph-name="three" unicode="3" 
d="M50 0v200h800v100h-700v200h700v100h-800v200h1000v-700l-100 -100h-900z" />
    <glyph glyph-name="four" unicode="4" 
d="M750 300v300h-350l-150 -150v-150h500zM750 0v100h-700v400l300 300h600v-500h100v-200h-100v-100h-200z" />
    <glyph glyph-name="five" unicode="5" 
d="M50 0v200h800v100h-700l-100 100v400h1000v-200h-800v-100h700l100 -100v-300l-100 -100h-900z" />
    <glyph glyph-name="six" unicode="6" 
d="M850 200v100h-600v-100h600zM150 0l-100 100v600l100 100h900v-200h-800v-100h700l100 -100v-300l-100 -100h-800z" />
    <glyph glyph-name="seven" unicode="7" 
d="M850 0v200h-500v200h500v200h-800v200h1000v-800h-200z" />
    <glyph glyph-name="eight" unicode="8" 
d="M850 200v100h-600v-100h600zM850 500v100h-600v-100h600zM150 0l-100 100v200l100 100l-100 100v200l100 100h800l100 -100v-200l-100 -100l100 -100v-200l-100 -100h-800z" />
    <glyph glyph-name="nine" unicode="9" 
d="M850 500v100h-600v-100h600zM50 0v200h800v100h-700l-100 100v300l100 100h800l100 -100v-600l-100 -100h-900z" />
    <glyph glyph-name="colon" unicode=":" horiz-adv-x="300" 
d="M50 100v200h200v-200h-200zM50 500v200h200v-200h-200z" />
    <glyph glyph-name="semicolon" unicode=";" horiz-adv-x="300" 
d="M50 0v300h200v-200l-100 -100h-100zM50 500v200h200v-200h-200z" />
    <glyph glyph-name="less" unicode="&#x3c;" horiz-adv-x="700" 
d="M450 0l-400 400l400 400h225l-400 -400l400 -400h-225z" />
    <glyph glyph-name="equal" unicode="=" horiz-adv-x="900" 
d="M50 100v200h800v-200h-800zM50 500v200h800v-200h-800z" />
    <glyph glyph-name="greater" unicode="&#x3e;" horiz-adv-x="700" 
d="M50 0l400 400l-400 400h225l400 -400l-400 -400h-225z" />
    <glyph glyph-name="question" unicode="?" 
d="M250 0v200h200v-200h-200zM250 300v100l100 100h500v100h-800v200h900l100 -100v-400h-800z" />
    <glyph glyph-name="at" unicode="@" 
d="M550 200v100h-300v-100h300zM150 0l-100 100v300l100 100h600v-300h100v400h-800v200h900l100 -100v-600l-100 -100h-200l-100 100l-100 -100h-400z" />
    <glyph glyph-name="A" unicode="A" 
d="M50 800h900l100 -100v-700h-200v200h-600v-200h-200v400l200 200v-200h700l-100 100v100h-600h-200v200z" />
    <glyph glyph-name="B" unicode="B" 
d="M50 800h900l100 -100v-200l-100 -100l100 -100v-200l-100 -100h-900v400l200 200v-100h600v100h-800v200zM250 300v-100h600v100h-600z" />
    <glyph glyph-name="C" unicode="C" 
d="M50 800h900l100 -100v-300h-200v200h-600zM50 660l200 -200v-260h800v-200h-900l-100 100v560z" />
    <glyph glyph-name="D" unicode="D" 
d="M50 802h900l100 -100v-600l-100 -100h-900v400l200 200v-400h700l-100 100v300h-800v200z" />
    <glyph glyph-name="E" unicode="E" 
d="M50 800h1000v-200h-1000v200zM250 600v-100h700v-200h-700v-100h800v-200h-900l-100 100v300z" />
    <glyph glyph-name="F" unicode="F" 
d="M50 802h1000v-200h-1000v200zM250 602v-100h700v-200h-700v-300h-200v400z" />
    <glyph glyph-name="G" unicode="G" 
d="M50 802h900l100 -100v-100h-800v-400l-150 -150l-50 50v700zM350 502h700v-500h-858l200 200h458v100h-500v200z" />
    <glyph glyph-name="H" unicode="H" 
d="M50 802h200v-159l-200 -200v359zM850 802h200v-800h-200v300h-600v-300h-200v300l200 200h700l-100 100v200z" />
    <glyph glyph-name="I" unicode="I" 
d="M50 802h1000v-200h-400v-400h400v-200h-1000v200h400v300l100 100h-500v200z" />
    <glyph glyph-name="J" unicode="J" 
d="M450 802h600l-200 -200h-400v200zM1050 660v-558l-100 -100h-800l-100 100v300h200v-200h600v258z" />
    <glyph glyph-name="K" unicode="K" 
d="M809 800h282l-799 -800h-283zM50 800h200v-417l-200 -200v617zM882 450h68l100 -100v-350h-200v250h-168z" />
    <glyph glyph-name="L" unicode="L" 
d="M50 802h200v-600l-200 -200v800zM850 402h200v-400h-859l200 200h459v200z" />
    <glyph glyph-name="M" unicode="M" 
d="M50 800h900l100 -100v-700h-200v600h-800v200zM250 600v-600h-200v400zM450 0v500h200v-500h-200z" />
    <glyph glyph-name="N" unicode="N" 
d="M50 800h900l100 -100v-700h-200v600h-800v200zM250 600v-600h-200v400z" />
    <glyph glyph-name="O" unicode="O" 
d="M150 800h800l100 -100v-600l-100 -100h-800l-100 100v559l200 -200v-259h700l-100 100v300h-600l-150 150z" />
    <glyph glyph-name="P" unicode="P" 
d="M50 800h900l100 -100v-400l-100 -100h-700v-200h-200v400l200 200v-200h700l-100 100v100h-800v200z" />
    <glyph glyph-name="Q" unicode="Q" 
d="M50 659l200 -200v-259h318l-200 200h282l400 -400h-900l-100 100v559zM150 800h800l100 -100v-559l-200 200v259h-600l-150 150z" />
    <glyph glyph-name="R" unicode="R" 
d="M50 800h900l100 -100v-400l-100 -100h-59l200 -200h-282l-200 200h-359v-200h-200v400l200 200v-200h700l-100 100v100h-800v200z" />
    <glyph glyph-name="S" unicode="S" 
d="M150 800h900v-200h-759l-170 171zM50 700l200 -200h700l100 -100v-300l-200 200h-700l-100 100v300zM50 200h759l170 -171l-29 -29h-900v200z" />
    <glyph glyph-name="T" unicode="T" 
d="M50 800h460l-200 -200h-260v200zM651 800h399v-200h-400v-600h-200v599z" />
    <glyph glyph-name="U" unicode="U" 
d="M50 800h200v-600h600l200 -200h-900l-100 100v700zM850 800h200v-659l-200 200v459z" />
    <glyph glyph-name="V" unicode="V" 
d="M50 800h200v-459l-200 -200v659zM850 800h200v-500l-300 -300h-700l200 200h416l184 183v417z" />
    <glyph glyph-name="W" unicode="W" 
d="M50 800h200v-600h600l200 -200h-900l-100 100v700zM850 800h200v-659l-200 200v459zM450 300v500h200v-500h-200z" />
    <glyph glyph-name="X" unicode="X" 
d="M50 800h200v-150l-171 -179l-29 29v300zM850 800h200v-301l-200 -199h-600v-300h-200v301l200 199h600v300zM1021 329l29 -29v-300h-200v150z" />
    <glyph glyph-name="Y" unicode="Y" 
d="M50 800h200v-300h600v300h200v-300l-200 -200h-700l-100 100v400zM1050 359v-259l-100 -100h-900v200h841z" />
    <glyph glyph-name="Z" unicode="Z" 
d="M50 800h718l-200 -200h-518v200zM909 800h141v-141l-359 -359h-200l-300 -300h-141v141l359 359h200zM533 200h517v-200h-717z" />
    <glyph glyph-name="bracketleft" unicode="[" horiz-adv-x="400" 
d="M50 0v800h300v-200h-100v-400h100v-200h-300z" />
    <glyph glyph-name="backslash" unicode="\" 
d="M850 0l-800 800h250l800 -800h-250z" />
    <glyph glyph-name="bracketright" unicode="]" horiz-adv-x="400" 
d="M50 0v200h100v400h-100v200h300v-800h-300z" />
    <glyph glyph-name="asciicircum" unicode="^" horiz-adv-x="900" 
d="M50 500l300 300h200l300 -300h-225l-175 175l-175 -175h-225z" />
    <glyph glyph-name="underscore" unicode="_" 
d="M50 -200v200h1000v-200h-1000z" />
    <glyph glyph-name="grave" unicode="`" horiz-adv-x="600" 
d="M350 500l-300 300h225l300 -300h-225z" />
    <glyph glyph-name="a" unicode="a" 
d="M850 400v200h-600v-200h600zM50 0v800h900l100 -100v-700h-200v200h-600v-200h-200z" />
    <glyph glyph-name="b" unicode="b" 
d="M850 200v100h-600v-100h600zM850 500v100h-600v-100h600zM50 0v800h900l100 -100v-200l-100 -100l100 -100v-200l-100 -100h-900z" />
    <glyph glyph-name="c" unicode="c" 
d="M150 0l-100 100v700h900l100 -100v-300h-200v200h-600v-400h800v-200h-900z" />
    <glyph glyph-name="d" unicode="d" 
d="M50 0v500h200v-300h600v400h-800v200h900l100 -100v-600l-100 -100h-900z" />
    <glyph glyph-name="e" unicode="e" 
d="M150 0l-100 100v700h1000v-200h-800v-100h700v-200h-700v-100h800v-200h-900z" />
    <glyph glyph-name="f" unicode="f" 
d="M50 0v800h1000v-200h-800v-100h700v-200h-700v-300h-200z" />
    <glyph glyph-name="g" unicode="g" 
d="M150 0l-100 100v700h900l100 -100v-100h-800v-400h600v100h-500v200h700v-500h-900z" />
    <glyph glyph-name="h" unicode="h" 
d="M50 0v800h200v-300h600v300h200v-800h-200v300h-600v-300h-200z" />
    <glyph glyph-name="i" unicode="i" horiz-adv-x="300" 
d="M50 0v800h200v-800h-200z" />
    <glyph glyph-name="j" unicode="j" 
d="M150 0l-100 100v300h200v-200h600v400h-300v200h500v-700l-100 -100h-800z" />
    <glyph glyph-name="k" unicode="k" 
d="M50 0v800h200v-300h259l300 300h282l-300 -300h159l100 -100v-400h-200v300h-600v-300h-200z" />
    <glyph glyph-name="l" unicode="l" 
d="M50 0v800h200v-600h600v200h200v-400h-1000z" />
    <glyph glyph-name="m" unicode="m" 
d="M50 0v800h900l100 -100v-700h-200v600h-200v-600h-200v600h-200v-600h-200z" />
    <glyph glyph-name="n" unicode="n" 
d="M50 0v800h900l100 -100v-700h-200v600h-600v-600h-200z" />
    <glyph glyph-name="o" unicode="o" 
d="M850 200v400h-600v-400h600zM150 0l-100 100v600l100 100h800l100 -100v-600l-100 -100h-800z" />
    <glyph glyph-name="p" unicode="p" 
d="M850 400v200h-600v-200h600zM50 0v800h900l100 -100v-400l-100 -100h-700v-200h-200z" />
    <glyph glyph-name="q" unicode="q" 
d="M150 0l-100 100v600l100 100h800l100 -100v-600l-200 200v300h-600v-400h350l-200 200h250l350 -350l-50 -50h-800z" />
    <glyph glyph-name="r" unicode="r" 
d="M850 400v200h-600v-200h600zM50 0v800h900l100 -100v-400l-100 -100h-100l200 -200h-275l-200 200h-325v-200h-200z" />
    <glyph glyph-name="s" unicode="s" 
d="M50 0v200h800v100h-800v400l100 100h900v-200h-800v-100h800v-400l-100 -100h-900z" />
    <glyph glyph-name="t" unicode="t" 
d="M450 0v600h-400v200h1000v-200h-400v-600h-200z" />
    <glyph glyph-name="u" unicode="u" 
d="M150 0l-100 100v700h200v-600h600v600h200v-800h-900z" />
    <glyph glyph-name="v" unicode="v" 
d="M850 800h200v-500l-300 -300h-700v800h200v-600h416l184 183v417z" />
    <glyph glyph-name="w" unicode="w" 
d="M150 0l-100 100v700h200v-600h200v600h200v-600h200v600h200v-800h-900z" />
    <glyph glyph-name="x" unicode="x" 
d="M50 0v300l100 100l-100 100v300h200v-300h600v300h200v-300l-100 -100l100 -100v-300h-200v300h-600v-300h-200z" />
    <glyph glyph-name="y" unicode="y" 
d="M50 0v200h800v100h-700l-100 100v400h200v-300h600v300h200v-700l-100 -100h-900z" />
    <glyph glyph-name="z" unicode="z" 
d="M50 0v400l100 100h700v100h-800v200h1000v-400l-100 -100h-700v-100h800v-200h-1000z" />
    <glyph glyph-name="braceleft" unicode="{" horiz-adv-x="500" 
d="M250 0l-100 100v200h-100v200h100v200l100 100h200v-200h-100v-100l-100 -100l100 -100v-100h100v-200h-200z" />
    <glyph glyph-name="bar" unicode="|" horiz-adv-x="300" 
d="M50 -200v1200h200v-1200h-200z" />
    <glyph glyph-name="braceright" unicode="}" horiz-adv-x="500" 
d="M50 0v200h100v100l100 100l-100 100v100h-100v200h200l100 -100v-200h100v-200h-100v-200l-100 -100h-200z" />
    <glyph glyph-name="asciitilde" unicode="~" horiz-adv-x="900" 
d="M50 200v300l100 100h238l200 -200h62v200h200v-300l-100 -100h-238l-200 200h-62v-200h-200z" />
    <glyph glyph-name="uni00A0" unicode="&#xa0;" horiz-adv-x="500" 
 />
    <glyph glyph-name="exclamdown" unicode="&#xa1;" horiz-adv-x="300" 
d="M50 0v500h200v-500h-200zM50 600v200h200v-200h-200z" />
    <glyph glyph-name="cent" unicode="&#xa2;" 
d="M700 50v200h150v100h200v-300h-350zM150 50l-100 100v500l100 100h250v-200h-150v-300h150v-200h-250zM850 450v100h-150v200h250l100 -100v-200h-200zM450 0v800h200v-800h-200z" />
    <glyph glyph-name="sterling" unicode="&#xa3;" 
d="M50 0v200h100v50h200v-50h500v200h200v-400h-1000zM50 300v200h700v-200h-700zM850 500v100h-500v-50h-200v150l100 100h800v-300h-200z" />
    <glyph glyph-name="currency" unicode="&#xa4;" horiz-adv-x="900" 
d="M550 300v200h-200v-200h200zM50 0v125l100 100v350l-100 100v125h125l100 -100h350l100 100h125v-125l-100 -100v-350l100 -100v-125h-125l-100 100h-350l-100 -100h-125z" />
    <glyph glyph-name="yen" unicode="&#xa5;" 
d="M50 100v200h350v-200h-350zM700 100v200h350v-200h-350zM450 0v350h-300l-100 100v350h200v-250h600v250h200v-350l-100 -100h-300v-350h-200z" />
    <glyph glyph-name="brokenbar" unicode="&#xa6;" horiz-adv-x="300" 
d="M50 0v350h200v-350h-200zM50 450v350h200v-350h-200z" />
    <glyph glyph-name="section" unicode="&#xa7;" 
d="M817 200l-400 400h-134l400 -400h134zM150 0l-100 100v200h100l100 -100h150l-350 350v250h900l100 -100v-200h-100l-100 100h-150l350 -350v-250h-900z" />
    <glyph glyph-name="dieresis" unicode="&#xa8;" horiz-adv-x="700" 
d="M50 600v200h200v-200h-200zM450 600v200h200v-200h-200z" />
    <glyph glyph-name="copyright" unicode="&#xa9;" 
d="M300 200l-50 50v300l50 50h500l50 -50v-100h-100v50h-400v-200h400v50h100v-100l-50 -50h-500zM925 100l25 25v550l-25 25h-750l-25 -25v-550l25 -25h750zM150 0l-100 100v600l100 100h800l100 -100v-600l-100 -100h-800z" />
    <glyph glyph-name="ordfeminine" unicode="&#xaa;" horiz-adv-x="900" 
d="M650 550v50h-400v-50h400zM50 200v250l150 150h-150v200h700l100 -100v-500h-200v150h-400v-150h-200z" />
    <glyph glyph-name="guillemotleft" unicode="&#xab;" horiz-adv-x="1000" 
d="M350 0l-300 300l300 300h250l-300 -300l300 -300h-250zM750 0l-300 300l300 300h250l-300 -300l300 -300h-250z" />
    <glyph glyph-name="logicalnot" unicode="&#xac;" horiz-adv-x="900" 
d="M650 200v200h-600v200h800v-400h-200z" />
    <glyph glyph-name="uni00AD" unicode="&#xad;" horiz-adv-x="600" 
d="M50 300v200h500v-200h-500z" />
    <glyph glyph-name="registered" unicode="&#xae;" 
d="M750 400v100h-400v-100h400zM250 200v400h550l50 -50v-150l-100 -100l100 -100h-125l-100 100h-275v-100h-100zM925 100l25 25v550l-25 25h-750l-25 -25v-550l25 -25h750zM150 0l-100 100v600l100 100h800l100 -100v-600l-100 -100h-800z" />
    <glyph glyph-name="macron" unicode="&#xaf;" 
d="M50 600v200h1000v-200h-1000z" />
    <glyph glyph-name="degree" unicode="&#xb0;" horiz-adv-x="700" 
d="M450 500v100h-200v-100h200zM150 300l-100 100v300l100 100h400l100 -100v-300l-100 -100h-400z" />
    <glyph glyph-name="plusminus" unicode="&#xb1;" horiz-adv-x="700" 
d="M50 0v200h600v-200h-600zM250 250v175h-200v200h200v175h200v-175h200v-200h-200v-175h-200z" />
    <glyph glyph-name="uni00B2" unicode="&#xb2;" horiz-adv-x="900" 
d="M50 200v350l100 100h500v50h-600v200h700l100 -100v-250l-100 -100h-500v-50h600v-200h-800z" />
    <glyph glyph-name="uni00B3" unicode="&#xb3;" horiz-adv-x="900" 
d="M50 200v200h600v50h-500v200h500v50h-600v200h800v-300l-50 -50l50 -50v-200l-100 -100h-700z" />
    <glyph glyph-name="acute" unicode="&#xb4;" horiz-adv-x="600" 
d="M50 500l300 300h225l-300 -300h-225z" />
    <glyph glyph-name="mu" unicode="&#xb5;" 
d="M50 -100v300l200 -200v-100h-200zM350 0l-300 300v400h200v-500h500v500h200v-500h100v-200h-100l-100 100l-100 -100h-400z" />
    <glyph glyph-name="paragraph" unicode="&#xb6;" 
d="M550 0v200h-400l-100 100v400l200 -200v-100h300l200 -200v-200h-200zM750 300l-200 200v100h-300l-150 150l50 50h600v-500zM850 0v800h200v-800h-200z" />
    <glyph glyph-name="periodcentered" unicode="&#xb7;" horiz-adv-x="300" 
d="M50 300v200h200v-200h-200z" />
    <glyph glyph-name="cedilla" unicode="&#xb8;" horiz-adv-x="500" 
d="M50 -300v200h200v50l-100 100v50h200l100 -100v-100l-200 -200h-200z" />
    <glyph glyph-name="uni00B9" unicode="&#xb9;" horiz-adv-x="400" 
d="M150 200v500h-100v200h300v-700h-200z" />
    <glyph glyph-name="ordmasculine" unicode="&#xba;" horiz-adv-x="900" 
d="M150 200l-100 100v400l200 -200v-100h500l-100 100v100h-400l-150 150l50 50h600l100 -100v-400l-100 -100h-600z" />
    <glyph glyph-name="guillemotright" unicode="&#xbb;" horiz-adv-x="1000" 
d="M50 0l300 300l-300 300h250l300 -300l-300 -300h-250zM450 0l300 300l-300 300h250l300 -300l-300 -300h-250z" />
    <glyph glyph-name="onequarter" unicode="&#xbc;" horiz-adv-x="1700" 
d="M1350 200v100h-250l-50 -50v-50h300zM1350 -100v100h-500v300l200 200h500v-300h100v-200h-100v-100h-200zM175 0l800 800h250l-800 -800h-250zM150 300v400h-100v200h300v-600h-200z" />
    <glyph glyph-name="onehalf" unicode="&#xbd;" horiz-adv-x="1700" 
d="M950 -100v300l50 50h450v50h-500v200h600l100 -100v-200l-50 -50h-450v-50h500v-200h-700zM175 0l800 800h250l-800 -800h-250zM150 300v400h-100v200h300v-600h-200z" />
    <glyph glyph-name="threequarters" unicode="&#xbe;" horiz-adv-x="2000" 
d="M1650 200v100h-250l-50 -50v-50h300zM1650 -100v100h-500v300l200 200h500v-300h100v-200h-100v-100h-200zM475 0l800 800h250l-800 -800h-250zM50 300v200h500v50h-350l150 150h-300v200h725l-200 -200h75l100 -100v-200l-100 -100h-600z" />
    <glyph glyph-name="questiondown" unicode="&#xbf;" 
d="M150 0l-100 100v400h800v-100l-100 -100h-500v-100h800v-200h-900zM650 600v200h200v-200h-200z" />
    <glyph glyph-name="Agrave" unicode="&#xc0;" 
d="M550 900l-200 200h200l200 -200h-200zM50 800h900l100 -100v-700h-200v200h-600v-200h-200v400l200 200v-200h700l-100 100v100h-600h-200v200z" />
    <glyph glyph-name="Aacute" unicode="&#xc1;" 
d="M350 900l200 200h200l-200 -200h-200zM50 800h900l100 -100v-700h-200v200h-600v-200h-200v400l200 200v-200h700l-100 100v100h-600h-200v200z" />
    <glyph glyph-name="Acircumflex" unicode="&#xc2;" 
d="M250 900l200 200h200l200 -200h-200l-100 100l-100 -100h-200zM50 800h900l100 -100v-700h-200v200h-600v-200h-200v400l200 200v-200h700l-100 100v100h-600h-200v200z" />
    <glyph glyph-name="Atilde" unicode="&#xc3;" 
d="M150 900l200 200h200l100 -100l100 100h200l-200 -200h-200l-100 100l-100 -100h-200zM50 800h900l100 -100v-700h-200v200h-600v-200h-200v400l200 200v-200h700l-100 100v100h-600h-200v200z" />
    <glyph glyph-name="Adieresis" unicode="&#xc4;" 
d="M250 900v200h200v-200h-200zM650 900v200h200v-200h-200zM50 800h900l100 -100v-700h-200v200h-600v-200h-200v400l200 200v-200h700l-100 100v100h-600h-200v200z" />
    <glyph glyph-name="Aring" unicode="&#xc5;" 
d="M650 800v100h-200v-100h200zM50 0v400l200 200v-200h700l-100 100v100h-800v200h200v200l100 100h400l100 -100v-200h100l100 -100v-700h-200v200h-600v-200h-200z" />
    <glyph glyph-name="AE" unicode="&#xc6;" horiz-adv-x="1500" 
d="M50 0v400l200 200v-200h400l200 -200h600v-200h-700l-100 100v100h-400v-200h-200zM850 300l-200 200v100h-600v200h600l200 -200v-100h500v-200h-500zM950 600l-200 200h700v-200h-500z" />
    <glyph glyph-name="Ccedilla" unicode="&#xc7;" 
d="M300 -300v200h400l-200 -200h-200zM50 800h900l100 -100v-300h-200v200h-600zM50 660l200 -200v-260h800v-200h-900l-100 100v560z" />
    <glyph glyph-name="Egrave" unicode="&#xc8;" 
d="M550 900l-200 200h200l200 -200h-200zM50 800h1000v-200h-1000v200zM250 600v-100h700v-200h-700v-100h800v-200h-900l-100 100v300z" />
    <glyph glyph-name="Eacute" unicode="&#xc9;" 
d="M350 900l200 200h200l-200 -200h-200zM50 800h1000v-200h-1000v200zM250 600v-100h700v-200h-700v-100h800v-200h-900l-100 100v300z" />
    <glyph glyph-name="Ecircumflex" unicode="&#xca;" 
d="M250 900l200 200h200l200 -200h-200l-100 100l-100 -100h-200zM50 800h1000v-200h-1000v200zM250 600v-100h700v-200h-700v-100h800v-200h-900l-100 100v300z" />
    <glyph glyph-name="Edieresis" unicode="&#xcb;" 
d="M250 900v200h200v-200h-200zM650 900v200h200v-200h-200zM50 800h1000v-200h-1000v200zM250 600v-100h700v-200h-700v-100h800v-200h-900l-100 100v300z" />
    <glyph glyph-name="Igrave" unicode="&#xcc;" 
d="M550 900l-200 200h200l200 -200h-200zM50 802h1000v-200h-400v-400h400v-200h-1000v200h400v300l100 100h-500v200z" />
    <glyph glyph-name="Iacute" unicode="&#xcd;" 
d="M350 900l200 200h200l-200 -200h-200zM50 802h1000v-200h-400v-400h400v-200h-1000v200h400v300l100 100h-500v200z" />
    <glyph glyph-name="Icircumflex" unicode="&#xce;" 
d="M250 900l200 200h200l200 -200h-200l-100 100l-100 -100h-200zM50 802h1000v-200h-400v-400h400v-200h-1000v200h400v300l100 100h-500v200z" />
    <glyph glyph-name="Idieresis" unicode="&#xcf;" 
d="M250 900v200h200v-200h-200zM650 900v200h200v-200h-200zM50 802h1000v-200h-400v-400h400v-200h-1000v200h400v300l100 100h-500v200z" />
    <glyph glyph-name="Eth" unicode="&#xd0;" 
d="M950 200l-100 100v300h-500v-100h200v-200h-200v-100h600zM50 0v200h100v100h-100v200h100v100h-100v200h900l100 -100v-600l-100 -100h-900z" />
    <glyph glyph-name="Ntilde" unicode="&#xd1;" 
d="M150 900l200 200h200l100 -100l100 100h200l-200 -200h-200l-100 100l-100 -100h-200zM50 800h900l100 -100v-700h-200v600h-800v200zM250 600v-600h-200v400z" />
    <glyph glyph-name="Ograve" unicode="&#xd2;" 
d="M550 900l-200 200h200l200 -200h-200zM150 800h800l100 -100v-600l-100 -100h-800l-100 100v559l200 -200v-259h700l-100 100v300h-600l-150 150z" />
    <glyph glyph-name="Oacute" unicode="&#xd3;" 
d="M350 900l200 200h200l-200 -200h-200zM150 800h800l100 -100v-600l-100 -100h-800l-100 100v559l200 -200v-259h700l-100 100v300h-600l-150 150z" />
    <glyph glyph-name="Ocircumflex" unicode="&#xd4;" 
d="M250 900l200 200h200l200 -200h-200l-100 100l-100 -100h-200zM150 800h800l100 -100v-600l-100 -100h-800l-100 100v559l200 -200v-259h700l-100 100v300h-600l-150 150z" />
    <glyph glyph-name="Otilde" unicode="&#xd5;" 
d="M150 900l200 200h200l100 -100l100 100h200l-200 -200h-200l-100 100l-100 -100h-200zM150 800h800l100 -100v-600l-100 -100h-800l-100 100v559l200 -200v-259h700l-100 100v300h-600l-150 150z" />
    <glyph glyph-name="Odieresis" unicode="&#xd6;" 
d="M250 900v200h200v-200h-200zM650 900v200h200v-200h-200zM150 800h800l100 -100v-600l-100 -100h-800l-100 100v559l200 -200v-259h700l-100 100v300h-600l-150 150z" />
    <glyph glyph-name="multiply" unicode="&#xd7;" horiz-adv-x="700" 
d="M50 100v125l175 175l-175 175v125h125l175 -175l175 175h125v-200h-75l-100 -100l175 -175v-125h-125l-175 175l-175 -175h-125z" />
    <glyph glyph-name="Oslash" unicode="&#xd8;" 
d="M375 0l200 200h275v275l200 200v-575l-100 -100h-575zM50 125v575l100 100h575l-200 -200h-275v-275zM25 0l800 800h250l-800 -800h-250z" />
    <glyph glyph-name="Ugrave" unicode="&#xd9;" 
d="M550 900l-200 200h200l200 -200h-200zM50 800h200v-600h600l200 -200h-900l-100 100v700zM850 800h200v-659l-200 200v459z" />
    <glyph glyph-name="Uacute" unicode="&#xda;" 
d="M350 900l200 200h200l-200 -200h-200zM50 800h200v-600h600l200 -200h-900l-100 100v700zM850 800h200v-659l-200 200v459z" />
    <glyph glyph-name="Ucircumflex" unicode="&#xdb;" 
d="M250 900l200 200h200l200 -200h-200l-100 100l-100 -100h-200zM50 800h200v-600h600l200 -200h-900l-100 100v700zM850 800h200v-659l-200 200v459z" />
    <glyph glyph-name="Udieresis" unicode="&#xdc;" 
d="M250 900v200h200v-200h-200zM650 900v200h200v-200h-200zM50 800h200v-600h600l200 -200h-900l-100 100v700zM850 800h200v-659l-200 200v459z" />
    <glyph glyph-name="Yacute" unicode="&#xdd;" 
d="M350 900l200 200h200l-200 -200h-200zM50 800h200v-300h600v300h200v-300l-200 -200h-700l-100 100v400zM1050 359v-259l-100 -100h-900v200h841z" />
    <glyph glyph-name="Thorn" unicode="&#xde;" 
d="M50 0v600l200 -200v-100h700l-100 100v100h-600l-200 200v100h200v-100h700l100 -100v-400l-100 -100h-700v-100h-200z" />
    <glyph glyph-name="germandbls" unicode="&#xdf;" 
d="M550 0l-200 200h500v100h-500v200h500v100l150 150l50 -50v-200l-100 -100l100 -100v-200l-100 -100h-400zM50 0v700l100 100h800l-200 -200h-500v-600h-200z" />
    <glyph glyph-name="agrave" unicode="&#xe0;" 
d="M550 900l-200 200h200l200 -200h-200zM850 400v200h-600v-200h600zM50 0v800h900l100 -100v-700h-200v200h-600v-200h-200z" />
    <glyph glyph-name="aacute" unicode="&#xe1;" 
d="M350 900l200 200h200l-200 -200h-200zM850 400v200h-600v-200h600zM50 0v800h900l100 -100v-700h-200v200h-600v-200h-200z" />
    <glyph glyph-name="acircumflex" unicode="&#xe2;" 
d="M250 900l200 200h200l200 -200h-200l-100 100l-100 -100h-200zM850 400v200h-600v-200h600zM50 0v800h900l100 -100v-700h-200v200h-600v-200h-200z" />
    <glyph glyph-name="atilde" unicode="&#xe3;" 
d="M150 900l200 200h200l100 -100l100 100h200l-200 -200h-200l-100 100l-100 -100h-200zM850 400v200h-600v-200h600zM50 0v800h900l100 -100v-700h-200v200h-600v-200h-200z" />
    <glyph glyph-name="adieresis" unicode="&#xe4;" 
d="M250 900v200h200v-200h-200zM650 900v200h200v-200h-200zM850 400v200h-600v-200h600zM50 0v800h900l100 -100v-700h-200v200h-600v-200h-200z" />
    <glyph glyph-name="aring" unicode="&#xe5;" 
d="M850 400v200h-600v-200h600zM650 800v100h-200v-100h200zM50 0v800h200v200l100 100h400l100 -100v-200h100l100 -100v-700h-200v200h-600v-200h-200z" />
    <glyph glyph-name="ae" unicode="&#xe6;" horiz-adv-x="1500" 
d="M650 400v200h-400v-200h400zM50 0v700l100 100h1300v-200h-600v-100h500v-200h-500v-100h600v-200h-800v200h-400v-200h-200z" />
    <glyph glyph-name="ccedilla" unicode="&#xe7;" 
d="M300 -300v200h400l-200 -200h-200zM150 0l-100 100v700h900l100 -100v-300h-200v200h-600v-400h800v-200h-900z" />
    <glyph glyph-name="egrave" unicode="&#xe8;" 
d="M550 900l-200 200h200l200 -200h-200zM150 0l-100 100v700h1000v-200h-800v-100h700v-200h-700v-100h800v-200h-900z" />
    <glyph glyph-name="eacute" unicode="&#xe9;" 
d="M350 900l200 200h200l-200 -200h-200zM150 0l-100 100v700h1000v-200h-800v-100h700v-200h-700v-100h800v-200h-900z" />
    <glyph glyph-name="ecircumflex" unicode="&#xea;" 
d="M250 900l200 200h200l200 -200h-200l-100 100l-100 -100h-200zM150 0l-100 100v700h1000v-200h-800v-100h700v-200h-700v-100h800v-200h-900z" />
    <glyph glyph-name="edieresis" unicode="&#xeb;" 
d="M250 900v200h200v-200h-200zM650 900v200h200v-200h-200zM150 0l-100 100v700h1000v-200h-800v-100h700v-200h-700v-100h800v-200h-900z" />
    <glyph glyph-name="igrave" unicode="&#xec;" horiz-adv-x="300" 
d="M150 900l-200 200h200l200 -200h-200zM50 0v800h200v-800h-200z" />
    <glyph glyph-name="iacute" unicode="&#xed;" horiz-adv-x="300" 
d="M-50 900l200 200h200l-200 -200h-200zM50 0v800h200v-800h-200z" />
    <glyph glyph-name="icircumflex" unicode="&#xee;" horiz-adv-x="300" 
d="M-150 900l200 200h200l200 -200h-200l-100 100l-100 -100h-200zM50 0v800h200v-800h-200z" />
    <glyph glyph-name="idieresis" unicode="&#xef;" horiz-adv-x="300" 
d="M-150 900v200h200v-200h-200zM250 900v200h200v-200h-200zM50 0v800h200v-800h-200z" />
    <glyph glyph-name="eth" unicode="&#xf0;" 
d="M850 200v400h-500v-100h200v-200h-200v-100h500zM50 0v200h100v100h-100v200h100v100h-100v200h900l100 -100v-600l-100 -100h-900z" />
    <glyph glyph-name="ntilde" unicode="&#xf1;" 
d="M150 900l200 200h200l100 -100l100 100h200l-200 -200h-200l-100 100l-100 -100h-200zM50 0v800h900l100 -100v-700h-200v600h-600v-600h-200z" />
    <glyph glyph-name="ograve" unicode="&#xf2;" 
d="M550 900l-200 200h200l200 -200h-200zM850 200v400h-600v-400h600zM150 0l-100 100v600l100 100h800l100 -100v-600l-100 -100h-800z" />
    <glyph glyph-name="oacute" unicode="&#xf3;" 
d="M350 900l200 200h200l-200 -200h-200zM850 200v400h-600v-400h600zM150 0l-100 100v600l100 100h800l100 -100v-600l-100 -100h-800z" />
    <glyph glyph-name="ocircumflex" unicode="&#xf4;" 
d="M250 900l200 200h200l200 -200h-200l-100 100l-100 -100h-200zM850 200v400h-600v-400h600zM150 0l-100 100v600l100 100h800l100 -100v-600l-100 -100h-800z" />
    <glyph glyph-name="otilde" unicode="&#xf5;" 
d="M150 900l200 200h200l100 -100l100 100h200l-200 -200h-200l-100 100l-100 -100h-200zM850 200v400h-600v-400h600zM150 0l-100 100v600l100 100h800l100 -100v-600l-100 -100h-800z" />
    <glyph glyph-name="odieresis" unicode="&#xf6;" 
d="M250 900v200h200v-200h-200zM650 900v200h200v-200h-200zM850 200v400h-600v-400h600zM150 0l-100 100v600l100 100h800l100 -100v-600l-100 -100h-800z" />
    <glyph glyph-name="divide" unicode="&#xf7;" horiz-adv-x="700" 
d="M250 0v200h200v-200h-200zM50 300v200h600v-200h-600zM250 600v200h200v-200h-200z" />
    <glyph glyph-name="oslash" unicode="&#xf8;" 
d="M850 200v375l-375 -375h375zM250 225l375 375h-375v-375zM50 0v700l100 100h900v-700l-100 -100h-900z" />
    <glyph glyph-name="ugrave" unicode="&#xf9;" 
d="M550 900l-200 200h200l200 -200h-200zM150 0l-100 100v700h200v-600h600v600h200v-800h-900z" />
    <glyph glyph-name="uacute" unicode="&#xfa;" 
d="M350 900l200 200h200l-200 -200h-200zM150 0l-100 100v700h200v-600h600v600h200v-800h-900z" />
    <glyph glyph-name="ucircumflex" unicode="&#xfb;" 
d="M250 900l200 200h200l200 -200h-200l-100 100l-100 -100h-200zM150 0l-100 100v700h200v-600h600v600h200v-800h-900z" />
    <glyph glyph-name="udieresis" unicode="&#xfc;" 
d="M250 900v200h200v-200h-200zM650 900v200h200v-200h-200zM150 0l-100 100v700h200v-600h600v600h200v-800h-900z" />
    <glyph glyph-name="yacute" unicode="&#xfd;" 
d="M350 900l200 200h200l-200 -200h-200zM50 0v200h800v100h-700l-100 100v400h200v-300h600v300h200v-700l-100 -100h-900z" />
    <glyph glyph-name="thorn" unicode="&#xfe;" 
d="M850 300v200h-600v-200h600zM50 0v800h200v-100h700l100 -100v-400l-100 -100h-700v-100h-200z" />
    <glyph glyph-name="ydieresis" unicode="&#xff;" 
d="M250 900v200h200v-200h-200zM650 900v200h200v-200h-200zM50 0v200h800v100h-700l-100 100v400h200v-300h600v300h200v-700l-100 -100h-900z" />
    <glyph glyph-name="Amacron" unicode="&#x100;" 
d="M350 900v200h400v-200h-400zM50 800h900l100 -100v-700h-200v200h-600v-200h-200v400l200 200v-200h700l-100 100v100h-600h-200v200z" />
    <glyph glyph-name="amacron" unicode="&#x101;" 
d="M350 900v200h400v-200h-400zM850 400v200h-600v-200h600zM50 0v800h900l100 -100v-700h-200v200h-600v-200h-200z" />
    <glyph glyph-name="Abreve" unicode="&#x102;" 
d="M850 1100v-100l-100 -100h-400l-100 100v100h200v-100h200v100h200zM50 800h900l100 -100v-700h-200v200h-600v-200h-200v400l200 200v-200h700l-100 100v100h-600h-200v200z" />
    <glyph glyph-name="abreve" unicode="&#x103;" 
d="M850 1100v-100l-100 -100h-400l-100 100v100h200v-100h200v100h200zM850 400v200h-600v-200h600zM50 0v800h900l100 -100v-700h-200v200h-600v-200h-200z" />
    <glyph glyph-name="Aogonek" unicode="&#x104;" 
d="M1050 -270h-200l-100 100v70l100 100h200l-100 -100h100v-170zM50 800h900l100 -100v-700h-200v200h-600v-200h-200v400l200 200v-200h700l-100 100v100h-600h-200v200z" />
    <glyph glyph-name="aogonek" unicode="&#x105;" 
d="M1050 -270h-200l-100 100v70l100 100h200l-100 -100h100v-170zM850 400v200h-600v-200h600zM50 0v800h900l100 -100v-700h-200v200h-600v-200h-200z" />
    <glyph glyph-name="Cacute" unicode="&#x106;" 
d="M350 901l200 200h200l-200 -200h-200zM50 800h900l100 -100v-300h-200v200h-600zM50 660l200 -200v-260h800v-200h-900l-100 100v560z" />
    <glyph glyph-name="cacute" unicode="&#x107;" 
d="M350 900l200 200h200l-200 -200h-200zM150 0l-100 100v700h900l100 -100v-300h-200v200h-600v-400h800v-200h-900z" />
    <glyph glyph-name="Ccircumflex" unicode="&#x108;" 
d="M250 901l200 200h200l200 -200h-200l-100 100l-100 -100h-200zM50 800h900l100 -100v-300h-200v200h-600zM50 660l200 -200v-260h800v-200h-900l-100 100v560z" />
    <glyph glyph-name="ccircumflex" unicode="&#x109;" 
d="M250 900l200 200h200l200 -200h-200l-100 100l-100 -100h-200zM150 0l-100 100v700h900l100 -100v-300h-200v200h-600v-400h800v-200h-900z" />
    <glyph glyph-name="Cdotaccent" unicode="&#x10a;" 
d="M650 901h-200v200h200v-200zM50 800h900l100 -100v-300h-200v200h-600zM50 660l200 -200v-260h800v-200h-900l-100 100v560z" />
    <glyph glyph-name="cdotaccent" unicode="&#x10b;" 
d="M650 900h-200v200h200v-200zM150 0l-100 100v700h900l100 -100v-300h-200v200h-600v-400h800v-200h-900z" />
    <glyph glyph-name="Ccaron" unicode="&#x10c;" 
d="M850 1101l-200 -200h-200l-200 200h200l100 -100l100 100h200zM50 800h900l100 -100v-300h-200v200h-600zM50 660l200 -200v-260h800v-200h-900l-100 100v560z" />
    <glyph glyph-name="ccaron" unicode="&#x10d;" 
d="M850 1100l-200 -200h-200l-200 200h200l100 -100l100 100h200zM150 0l-100 100v700h900l100 -100v-300h-200v200h-600v-400h800v-200h-900z" />
    <glyph glyph-name="Dcaron" unicode="&#x10e;" 
d="M850 1100l-200 -200h-200l-200 200h200l100 -100l100 100h200zM50 802h900l100 -100v-600l-100 -100h-900v400l200 200v-400h700l-100 100v300h-800v200z" />
    <glyph glyph-name="dcaron" unicode="&#x10f;" 
d="M850 1100l-200 -200h-200l-200 200h200l100 -100l100 100h200zM50 0v500h200v-300h600v400h-800v200h900l100 -100v-600l-100 -100h-900z" />
    <glyph glyph-name="Dcroat" unicode="&#x110;" 
d="M950 200l-100 100v300h-500v-100h200v-200h-200v-100h600zM50 0v200h100v100h-100v200h100v100h-100v200h900l100 -100v-600l-100 -100h-900z" />
    <glyph glyph-name="dcroat" unicode="&#x111;" 
d="M850 200v400h-500v-100h200v-200h-200v-100h500zM50 0v200h100v100h-100v200h100v100h-100v200h900l100 -100v-600l-100 -100h-900z" />
    <glyph glyph-name="Emacron" unicode="&#x112;" 
d="M350 900v200h400v-200h-400zM50 800h1000v-200h-1000v200zM250 600v-100h700v-200h-700v-100h800v-200h-900l-100 100v300z" />
    <glyph glyph-name="emacron" unicode="&#x113;" 
d="M350 900v200h400v-200h-400zM150 0l-100 100v700h1000v-200h-800v-100h700v-200h-700v-100h800v-200h-900z" />
    <glyph glyph-name="Ebreve" unicode="&#x114;" 
d="M850 1100v-100l-100 -100h-400l-100 100v100h200v-100h200v100h200zM50 800h1000v-200h-1000v200zM250 600v-100h700v-200h-700v-100h800v-200h-900l-100 100v300z" />
    <glyph glyph-name="ebreve" unicode="&#x115;" 
d="M850 1100v-100l-100 -100h-400l-100 100v100h200v-100h200v100h200zM150 0l-100 100v700h1000v-200h-800v-100h700v-200h-700v-100h800v-200h-900z" />
    <glyph glyph-name="Edotaccent" unicode="&#x116;" 
d="M650 900h-200v200h200v-200zM50 800h1000v-200h-1000v200zM250 600v-100h700v-200h-700v-100h800v-200h-900l-100 100v300z" />
    <glyph glyph-name="edotaccent" unicode="&#x117;" 
d="M650 900h-200v200h200v-200zM150 0l-100 100v700h1000v-200h-800v-100h700v-200h-700v-100h800v-200h-900z" />
    <glyph glyph-name="Eogonek" unicode="&#x118;" 
d="M1050 -270h-200l-100 100v70l100 100h200l-100 -100h100v-170zM50 800h1000v-200h-1000v200zM250 600v-100h700v-200h-700v-100h800v-200h-900l-100 100v300z" />
    <glyph glyph-name="eogonek" unicode="&#x119;" 
d="M1050 -270h-200l-100 100v70l100 100h200l-100 -100h100v-170zM150 0l-100 100v700h1000v-200h-800v-100h700v-200h-700v-100h800v-200h-900z" />
    <glyph glyph-name="Ecaron" unicode="&#x11a;" 
d="M850 1100l-200 -200h-200l-200 200h200l100 -100l100 100h200zM50 800h1000v-200h-1000v200zM250 600v-100h700v-200h-700v-100h800v-200h-900l-100 100v300z" />
    <glyph glyph-name="ecaron" unicode="&#x11b;" 
d="M850 1100l-200 -200h-200l-200 200h200l100 -100l100 100h200zM150 0l-100 100v700h1000v-200h-800v-100h700v-200h-700v-100h800v-200h-900z" />
    <glyph glyph-name="Gcircumflex" unicode="&#x11c;" 
d="M250 900l200 200h200l200 -200h-200l-100 100l-100 -100h-200zM50 802h900l100 -100v-100h-800v-400l-150 -150l-50 50v700zM350 502h700v-500h-858l200 200h458v100h-500v200z" />
    <glyph glyph-name="gcircumflex" unicode="&#x11d;" 
d="M250 900l200 200h200l200 -200h-200l-100 100l-100 -100h-200zM150 0l-100 100v700h900l100 -100v-100h-800v-400h600v100h-500v200h700v-500h-900z" />
    <glyph glyph-name="Gbreve" unicode="&#x11e;" 
d="M850 1100v-100l-100 -100h-400l-100 100v100h200v-100h200v100h200zM50 802h900l100 -100v-100h-800v-400l-150 -150l-50 50v700zM350 502h700v-500h-858l200 200h458v100h-500v200z" />
    <glyph glyph-name="gbreve" unicode="&#x11f;" 
d="M850 1100v-100l-100 -100h-400l-100 100v100h200v-100h200v100h200zM150 0l-100 100v700h900l100 -100v-100h-800v-400h600v100h-500v200h700v-500h-900z" />
    <glyph glyph-name="Gdotaccent" unicode="&#x120;" 
d="M650 900h-200v200h200v-200zM50 802h900l100 -100v-100h-800v-400l-150 -150l-50 50v700zM350 502h700v-500h-858l200 200h458v100h-500v200z" />
    <glyph glyph-name="gdotaccent" unicode="&#x121;" 
d="M650 900h-200v200h200v-200zM150 0l-100 100v700h900l100 -100v-100h-800v-400h600v100h-500v200h700v-500h-900z" />
    <glyph glyph-name="uni0122" unicode="&#x122;" 
d="M300 -300l200 200h200v-200h-400zM50 802h900l100 -100v-100h-800v-400l-150 -150l-50 50v700zM350 502h700v-500h-858l200 200h458v100h-500v200z" />
    <glyph glyph-name="uni0123" unicode="&#x123;" 
d="M300 -300l200 200h200v-200h-400zM150 0l-100 100v700h900l100 -100v-100h-800v-400h600v100h-500v200h700v-500h-900z" />
    <glyph glyph-name="Hcircumflex" unicode="&#x124;" 
d="M250 900l200 200h200l200 -200h-200l-100 100l-100 -100h-200zM50 802h200v-159l-200 -200v359zM850 802h200v-800h-200v300h-600v-300h-200v300l200 200h700l-100 100v200z" />
    <glyph glyph-name="hcircumflex" unicode="&#x125;" 
d="M250 900l200 200h200l200 -200h-200l-100 100l-100 -100h-200zM50 0v800h200v-300h600v300h200v-800h-200v300h-600v-300h-200z" />
    <glyph glyph-name="Hbar" unicode="&#x126;" 
d="M250 350h600v102h-600l-200 -202v200h-50v200h50v152h200v-150h700l-100 100v50h200v-152h50v-200h-50v-448h-200v148h-600v-148h-200v173l200 200v-25z" />
    <glyph glyph-name="hbar" unicode="&#x127;" 
d="M50 802h200v-150h600v150h200v-152h50v-200h-50v-448h-200v148h-600v-148h-200v448h-50v200h50v152zM250 350h600v102h-600v-102z" />
    <glyph glyph-name="Itilde" unicode="&#x128;" 
d="M150 900l200 200h200l100 -100l100 100h200l-200 -200h-200l-100 100l-100 -100h-200zM50 802h1000v-200h-400v-400h400v-200h-1000v200h400v300l100 100h-500v200z" />
    <glyph glyph-name="itilde" unicode="&#x129;" horiz-adv-x="300" 
d="M-250 900l200 200h200l100 -100l100 100h200l-200 -200h-200l-100 100l-100 -100h-200zM50 0v800h200v-800h-200z" />
    <glyph glyph-name="Imacron" unicode="&#x12a;" 
d="M350 900v200h400v-200h-400zM50 802h1000v-200h-400v-400h400v-200h-1000v200h400v300l100 100h-500v200z" />
    <glyph glyph-name="imacron" unicode="&#x12b;" horiz-adv-x="300" 
d="M-50 900v200h400v-200h-400zM50 0v800h200v-800h-200z" />
    <glyph glyph-name="Ibreve" unicode="&#x12c;" 
d="M850 1100v-100l-100 -100h-400l-100 100v100h200v-100h200v100h200zM50 802h1000v-200h-400v-400h400v-200h-1000v200h400v300l100 100h-500v200z" />
    <glyph glyph-name="ibreve" unicode="&#x12d;" horiz-adv-x="300" 
d="M450 1100v-100l-100 -100h-400l-100 100v100h200v-100h200v100h200zM50 0v800h200v-800h-200z" />
    <glyph glyph-name="Iogonek" unicode="&#x12e;" 
d="M1050 -270h-200l-100 100v70l100 100h200l-100 -100h100v-170zM50 802h1000v-200h-400v-400h400v-200h-1000v200h400v300l100 100h-500v200z" />
    <glyph glyph-name="iogonek" unicode="&#x12f;" horiz-adv-x="300" 
d="M250 -270h-200l-100 100v70l100 100h200l-100 -100h100v-170zM50 0v800h200v-800h-200z" />
    <glyph glyph-name="Idotaccent" unicode="&#x130;" 
d="M650 900h-200v200h200v-200zM50 802h1000v-200h-400v-400h400v-200h-1000v200h400v300l100 100h-500v200z" />
    <glyph glyph-name="dotlessi" unicode="&#x131;" horiz-adv-x="300" 
d="M50 0v800h200v-800h-200z" />
    <glyph glyph-name="IJ" unicode="&#x132;" horiz-adv-x="2200" 
d="M1550 802h600l-200 -200h-400v200zM2150 660v-558l-100 -100h-800l-100 100v300h200v-200h600v258zM50 802h1000v-200h-400v-400h400v-200h-1000v200h400v300l100 100h-500v200z" />
    <glyph glyph-name="ij" unicode="&#x133;" horiz-adv-x="1400" 
d="M450 0l-100 100v300h200v-200h600v400h-300v200h500v-700l-100 -100h-800zM50 0v800h200v-800h-200z" />
    <glyph glyph-name="Jcircumflex" unicode="&#x134;" 
d="M250 900l200 200h200l200 -200h-200l-100 100l-100 -100h-200zM450 802h600l-200 -200h-400v200zM1050 660v-558l-100 -100h-800l-100 100v300h200v-200h600v258z" />
    <glyph glyph-name="jcircumflex" unicode="&#x135;" 
d="M250 900l200 200h200l200 -200h-200l-100 100l-100 -100h-200zM150 0l-100 100v300h200v-200h600v400h-300v200h500v-700l-100 -100h-800z" />
    <glyph glyph-name="uni0136" unicode="&#x136;" 
d="M300 -300l200 200h200v-200h-400zM809 800h282l-799 -800h-283zM50 800h200v-417l-200 -200v617zM882 450h68l100 -100v-350h-200v250h-168z" />
    <glyph glyph-name="uni0137" unicode="&#x137;" 
d="M300 -300l200 200h200v-200h-400zM50 0v800h200v-300h259l300 300h282l-300 -300h159l100 -100v-400h-200v300h-600v-300h-200z" />
    <glyph glyph-name="kgreenlandic" unicode="&#x138;" 
d="M50 0v800h200v-300h259l300 300h282l-300 -300h159l100 -100v-400h-200v300h-600v-300h-200z" />
    <glyph glyph-name="Lacute" unicode="&#x139;" 
d="M350 900l200 200h200l-200 -200h-200zM50 802h200v-600l-200 -200v800zM850 402h200v-400h-859l200 200h459v200z" />
    <glyph glyph-name="lacute" unicode="&#x13a;" 
d="M350 900l200 200h200l-200 -200h-200zM50 0v800h200v-600h600v200h200v-400h-1000z" />
    <glyph glyph-name="uni013B" unicode="&#x13b;" 
d="M300 -300l200 200h200v-200h-400zM50 802h200v-600l-200 -200v800zM850 402h200v-400h-859l200 200h459v200z" />
    <glyph glyph-name="uni013C" unicode="&#x13c;" 
d="M300 -300l200 200h200v-200h-400zM50 0v800h200v-600h600v200h200v-400h-1000z" />
    <glyph glyph-name="Lcaron" unicode="&#x13d;" 
d="M650 500v300h200v-200l-100 -100h-100zM50 802h200v-600l-200 -200v800zM850 402h200v-400h-859l200 200h459v200z" />
    <glyph glyph-name="lcaron" unicode="&#x13e;" 
d="M650 500v300h200v-200l-100 -100h-100zM50 0v800h200v-600h600v200h200v-400h-1000z" />
    <glyph glyph-name="Ldot" unicode="&#x13f;" 
d="M450 402v200h200v-200h-200zM50 802h200v-600l-200 -200v800zM850 402h200v-400h-859l200 200h459v200z" />
    <glyph glyph-name="ldot" unicode="&#x140;" 
d="M450 402v200h200v-200h-200zM50 0v800h200v-600h600v200h200v-400h-1000z" />
    <glyph glyph-name="Lslash" unicode="&#x141;" 
d="M150 800h200v-34l-200 -200v234zM850 400h200v-400h-900l200 200h500v200zM450 725v-283l-400 -400v283z" />
    <glyph glyph-name="lslash" unicode="&#x142;" 
d="M150 800h200v-175l100 100v-283l-400 -400v283l100 100v375zM850 400h200v-400h-900l200 200h500v200z" />
    <glyph glyph-name="Nacute" unicode="&#x143;" 
d="M350 900l200 200h200l-200 -200h-200zM50 800h900l100 -100v-700h-200v600h-800v200zM250 600v-600h-200v400z" />
    <glyph glyph-name="nacute" unicode="&#x144;" 
d="M350 900l200 200h200l-200 -200h-200zM50 0v800h900l100 -100v-700h-200v600h-600v-600h-200z" />
    <glyph glyph-name="uni0145" unicode="&#x145;" 
d="M300 -300l200 200h200v-200h-400zM50 800h900l100 -100v-700h-200v600h-800v200zM250 600v-600h-200v400z" />
    <glyph glyph-name="uni0146" unicode="&#x146;" 
d="M300 -300l200 200h200v-200h-400zM50 0v800h900l100 -100v-700h-200v600h-600v-600h-200z" />
    <glyph glyph-name="Ncaron" unicode="&#x147;" 
d="M850 1100l-200 -200h-200l-200 200h200l100 -100l100 100h200zM50 800h900l100 -100v-700h-200v600h-800v200zM250 600v-600h-200v400z" />
    <glyph glyph-name="ncaron" unicode="&#x148;" 
d="M850 1100l-200 -200h-200l-200 200h200l100 -100l100 100h200zM50 0v800h900l100 -100v-700h-200v600h-600v-600h-200z" />
    <glyph glyph-name="napostrophe" unicode="&#x149;" horiz-adv-x="1400" 
d="M50 500v300h200v-200l-100 -100h-100zM350 0v800h900l100 -100v-700h-200v600h-600v-600h-200z" />
    <glyph glyph-name="Eng" unicode="&#x14a;" 
d="M1050 100l-100 -100h-500v200h500l-100 100v300h-800v200h900l100 -100v-600zM250 600v-600h-200v400z" />
    <glyph glyph-name="eng" unicode="&#x14b;" 
d="M50 0v800h900l100 -100v-600l-100 -100h-500v200h400v400h-600v-600h-200z" />
    <glyph glyph-name="Omacron" unicode="&#x14c;" 
d="M350 900v200h400v-200h-400zM150 800h800l100 -100v-600l-100 -100h-800l-100 100v559l200 -200v-259h700l-100 100v300h-600l-150 150z" />
    <glyph glyph-name="omacron" unicode="&#x14d;" 
d="M350 900v200h400v-200h-400zM850 200v400h-600v-400h600zM150 0l-100 100v600l100 100h800l100 -100v-600l-100 -100h-800z" />
    <glyph glyph-name="Obreve" unicode="&#x14e;" 
d="M850 1100v-100l-100 -100h-400l-100 100v100h200v-100h200v100h200zM150 800h800l100 -100v-600l-100 -100h-800l-100 100v559l200 -200v-259h700l-100 100v300h-600l-150 150z" />
    <glyph glyph-name="obreve" unicode="&#x14f;" 
d="M850 1100v-100l-100 -100h-400l-100 100v100h200v-100h200v100h200zM850 200v400h-600v-400h600zM150 0l-100 100v600l100 100h800l100 -100v-600l-100 -100h-800z" />
    <glyph glyph-name="Ohungarumlaut" unicode="&#x150;" 
d="M550 900l200 200h200l-200 -200h-200zM150 900l200 200h200l-200 -200h-200zM150 800h800l100 -100v-600l-100 -100h-800l-100 100v559l200 -200v-259h700l-100 100v300h-600l-150 150z" />
    <glyph glyph-name="ohungarumlaut" unicode="&#x151;" 
d="M550 900l200 200h200l-200 -200h-200zM150 900l200 200h200l-200 -200h-200zM850 200v400h-600v-400h600zM150 0l-100 100v600l100 100h800l100 -100v-600l-100 -100h-800z" />
    <glyph glyph-name="OE" unicode="&#x152;" horiz-adv-x="1500" 
d="M150 0l-100 100v600l200 -200v-300h500l-100 100v300h-400l-150 150l50 50h1300v-200h-600v-100h500v-200h-500v-100h600v-200h-1300z" />
    <glyph glyph-name="oe" unicode="&#x153;" horiz-adv-x="1500" 
d="M650 200v400h-400v-400h400zM150 0l-100 100v600l100 100h500l100 -100l100 100h600v-200h-600v-100h500v-200h-500v-100h600v-200h-600l-100 100l-100 -100h-500z" />
    <glyph glyph-name="Racute" unicode="&#x154;" 
d="M350 900l200 200h200l-200 -200h-200zM50 800h900l100 -100v-400l-100 -100h-59l200 -200h-282l-200 200h-359v-200h-200v400l200 200v-200h700l-100 100v100h-800v200z" />
    <glyph glyph-name="racute" unicode="&#x155;" 
d="M350 900l200 200h200l-200 -200h-200zM850 400v200h-600v-200h600zM50 0v800h900l100 -100v-400l-100 -100h-100l200 -200h-275l-200 200h-325v-200h-200z" />
    <glyph glyph-name="uni0156" unicode="&#x156;" 
d="M300 -300l200 200h200v-200h-400zM50 800h900l100 -100v-400l-100 -100h-59l200 -200h-282l-200 200h-359v-200h-200v400l200 200v-200h700l-100 100v100h-800v200z" />
    <glyph glyph-name="uni0157" unicode="&#x157;" 
d="M300 -300l200 200h200v-200h-400zM850 400v200h-600v-200h600zM50 0v800h900l100 -100v-400l-100 -100h-100l200 -200h-275l-200 200h-325v-200h-200z" />
    <glyph glyph-name="Rcaron" unicode="&#x158;" 
d="M850 1100l-200 -200h-200l-200 200h200l100 -100l100 100h200zM50 800h900l100 -100v-400l-100 -100h-59l200 -200h-282l-200 200h-359v-200h-200v400l200 200v-200h700l-100 100v100h-800v200z" />
    <glyph glyph-name="rcaron" unicode="&#x159;" 
d="M850 1100l-200 -200h-200l-200 200h200l100 -100l100 100h200zM850 400v200h-600v-200h600zM50 0v800h900l100 -100v-400l-100 -100h-100l200 -200h-275l-200 200h-325v-200h-200z" />
    <glyph glyph-name="Sacute" unicode="&#x15a;" 
d="M350 900l200 200h200l-200 -200h-200zM150 800h900v-200h-759l-170 171zM50 700l200 -200h700l100 -100v-300l-200 200h-700l-100 100v300zM50 200h759l170 -171l-29 -29h-900v200z" />
    <glyph glyph-name="sacute" unicode="&#x15b;" 
d="M350 900l200 200h200l-200 -200h-200zM50 0v200h800v100h-800v400l100 100h900v-200h-800v-100h800v-400l-100 -100h-900z" />
    <glyph glyph-name="Scircumflex" unicode="&#x15c;" 
d="M250 900l200 200h200l200 -200h-200l-100 100l-100 -100h-200zM150 800h900v-200h-759l-170 171zM50 700l200 -200h700l100 -100v-300l-200 200h-700l-100 100v300zM50 200h759l170 -171l-29 -29h-900v200z" />
    <glyph glyph-name="scircumflex" unicode="&#x15d;" 
d="M250 900l200 200h200l200 -200h-200l-100 100l-100 -100h-200zM50 0v200h800v100h-800v400l100 100h900v-200h-800v-100h800v-400l-100 -100h-900z" />
    <glyph glyph-name="Scedilla" unicode="&#x15e;" 
d="M300 -300v200h400l-200 -200h-200zM150 800h900v-200h-759l-170 171zM50 700l200 -200h700l100 -100v-300l-200 200h-700l-100 100v300zM50 200h759l170 -171l-29 -29h-900v200z" />
    <glyph glyph-name="scedilla" unicode="&#x15f;" 
d="M300 -300v200h400l-200 -200h-200zM50 0v200h800v100h-800v400l100 100h900v-200h-800v-100h800v-400l-100 -100h-900z" />
    <glyph glyph-name="Scaron" unicode="&#x160;" 
d="M850 1100l-200 -200h-200l-200 200h200l100 -100l100 100h200zM150 800h900v-200h-759l-170 171zM50 700l200 -200h700l100 -100v-300l-200 200h-700l-100 100v300zM50 200h759l170 -171l-29 -29h-900v200z" />
    <glyph glyph-name="scaron" unicode="&#x161;" 
d="M850 1100l-200 -200h-200l-200 200h200l100 -100l100 100h200zM50 0v200h800v100h-800v400l100 100h900v-200h-800v-100h800v-400l-100 -100h-900z" />
    <glyph glyph-name="uni0162" unicode="&#x162;" 
d="M300 -300v200h400l-200 -200h-200zM50 800h460l-200 -200h-260v200zM651 800h399v-200h-400v-600h-200v599z" />
    <glyph glyph-name="uni0163" unicode="&#x163;" 
d="M300 -300v200h400l-200 -200h-200zM450 0v600h-400v200h1000v-200h-400v-600h-200z" />
    <glyph glyph-name="Tcaron" unicode="&#x164;" 
d="M850 1100l-200 -200h-200l-200 200h200l100 -100l100 100h200zM50 800h460l-200 -200h-260v200zM651 800h399v-200h-400v-600h-200v599z" />
    <glyph glyph-name="tcaron" unicode="&#x165;" 
d="M850 1100l-200 -200h-200l-200 200h200l100 -100l100 100h200zM450 0v600h-400v200h1000v-200h-400v-600h-200z" />
    <glyph glyph-name="Tbar" unicode="&#x166;" 
d="M150 250v200h300v149l201 201h399v-200h-400v-150h300v-200h-300v-250h-200v250h-300zM50 800h460l-200 -200h-260v200z" />
    <glyph glyph-name="tbar" unicode="&#x167;" 
d="M150 250v200h300v150h-400v200h1000v-200h-400v-150h300v-200h-300v-250h-200v250h-300z" />
    <glyph glyph-name="Utilde" unicode="&#x168;" 
d="M150 900l200 200h200l100 -100l100 100h200l-200 -200h-200l-100 100l-100 -100h-200zM50 800h200v-600h600l200 -200h-900l-100 100v700zM850 800h200v-659l-200 200v459z" />
    <glyph glyph-name="utilde" unicode="&#x169;" 
d="M150 900l200 200h200l100 -100l100 100h200l-200 -200h-200l-100 100l-100 -100h-200zM150 0l-100 100v700h200v-600h600v600h200v-800h-900z" />
    <glyph glyph-name="Umacron" unicode="&#x16a;" 
d="M350 900v200h400v-200h-400zM50 800h200v-600h600l200 -200h-900l-100 100v700zM850 800h200v-659l-200 200v459z" />
    <glyph glyph-name="umacron" unicode="&#x16b;" 
d="M350 900v200h400v-200h-400zM150 0l-100 100v700h200v-600h600v600h200v-800h-900z" />
    <glyph glyph-name="Ubreve" unicode="&#x16c;" 
d="M850 1100v-100l-100 -100h-400l-100 100v100h200v-100h200v100h200zM50 800h200v-600h600l200 -200h-900l-100 100v700zM850 800h200v-659l-200 200v459z" />
    <glyph glyph-name="ubreve" unicode="&#x16d;" 
d="M850 1100v-100l-100 -100h-400l-100 100v100h200v-100h200v100h200zM150 0l-100 100v700h200v-600h600v600h200v-800h-900z" />
    <glyph glyph-name="Uring" unicode="&#x16e;" 
d="M650 900v100h-200v-100h200zM250 900v100l100 100h400l100 -100v-100l-100 -100h-400zM50 800h200v-600h600l200 -200h-900l-100 100v700zM850 800h200v-659l-200 200v459z" />
    <glyph glyph-name="uring" unicode="&#x16f;" 
d="M650 900v100h-200v-100h200zM250 900v100l100 100h400l100 -100v-100l-100 -100h-400zM150 0l-100 100v700h200v-600h600v600h200v-800h-900z" />
    <glyph glyph-name="Uhungarumlaut" unicode="&#x170;" 
d="M550 900l200 200h200l-200 -200h-200zM150 900l200 200h200l-200 -200h-200zM50 800h200v-600h600l200 -200h-900l-100 100v700zM850 800h200v-659l-200 200v459z" />
    <glyph glyph-name="uhungarumlaut" unicode="&#x171;" 
d="M550 900l200 200h200l-200 -200h-200zM150 900l200 200h200l-200 -200h-200zM150 0l-100 100v700h200v-600h600v600h200v-800h-900z" />
    <glyph glyph-name="Uogonek" unicode="&#x172;" 
d="M1050 -270h-200l-100 100v70l100 100h200l-100 -100h100v-170zM50 800h200v-600h600l200 -200h-900l-100 100v700zM850 800h200v-659l-200 200v459z" />
    <glyph glyph-name="uogonek" unicode="&#x173;" 
d="M1050 -270h-200l-100 100v70l100 100h200l-100 -100h100v-170zM150 0l-100 100v700h200v-600h600v600h200v-800h-900z" />
    <glyph glyph-name="Wcircumflex" unicode="&#x174;" 
d="M250 900l200 200h200l200 -200h-200l-100 100l-100 -100h-200zM50 800h200v-600h600l200 -200h-900l-100 100v700zM850 800h200v-659l-200 200v459zM450 300v500h200v-500h-200z" />
    <glyph glyph-name="wcircumflex" unicode="&#x175;" 
d="M250 900l200 200h200l200 -200h-200l-100 100l-100 -100h-200zM150 0l-100 100v700h200v-600h200v600h200v-600h200v600h200v-800h-900z" />
    <glyph glyph-name="Ycircumflex" unicode="&#x176;" 
d="M250 900l200 200h200l200 -200h-200l-100 100l-100 -100h-200zM50 800h200v-300h600v300h200v-300l-200 -200h-700l-100 100v400zM1050 359v-259l-100 -100h-900v200h841z" />
    <glyph glyph-name="ycircumflex" unicode="&#x177;" 
d="M250 900l200 200h200l200 -200h-200l-100 100l-100 -100h-200zM50 0v200h800v100h-700l-100 100v400h200v-300h600v300h200v-700l-100 -100h-900z" />
    <glyph glyph-name="Ydieresis" unicode="&#x178;" 
d="M250 900v200h200v-200h-200zM650 900v200h200v-200h-200zM50 800h200v-300h600v300h200v-300l-200 -200h-700l-100 100v400zM1050 359v-259l-100 -100h-900v200h841z" />
    <glyph glyph-name="Zacute" unicode="&#x179;" 
d="M350 900l200 200h200l-200 -200h-200zM50 800h718l-200 -200h-518v200zM909 800h141v-141l-359 -359h-200l-300 -300h-141v141l359 359h200zM533 200h517v-200h-717z" />
    <glyph glyph-name="zacute" unicode="&#x17a;" 
d="M350 900l200 200h200l-200 -200h-200zM50 0v400l100 100h700v100h-800v200h1000v-400l-100 -100h-700v-100h800v-200h-1000z" />
    <glyph glyph-name="Zdotaccent" unicode="&#x17b;" 
d="M650 900h-200v200h200v-200zM50 800h718l-200 -200h-518v200zM909 800h141v-141l-359 -359h-200l-300 -300h-141v141l359 359h200zM533 200h517v-200h-717z" />
    <glyph glyph-name="zdotaccent" unicode="&#x17c;" 
d="M650 900h-200v200h200v-200zM50 0v400l100 100h700v100h-800v200h1000v-400l-100 -100h-700v-100h800v-200h-1000z" />
    <glyph glyph-name="Zcaron" unicode="&#x17d;" 
d="M850 1100l-200 -200h-200l-200 200h200l100 -100l100 100h200zM50 800h718l-200 -200h-518v200zM909 800h141v-141l-359 -359h-200l-300 -300h-141v141l359 359h200zM533 200h517v-200h-717z" />
    <glyph glyph-name="zcaron" unicode="&#x17e;" 
d="M850 1100l-200 -200h-200l-200 200h200l100 -100l100 100h200zM50 0v400l100 100h700v100h-800v200h1000v-400l-100 -100h-700v-100h800v-200h-1000z" />
    <glyph glyph-name="longs" unicode="&#x17f;" 
d="M50 0v700l100 100h800l100 -100v-300h-200v200h-600v-600h-200z" />
    <glyph glyph-name="gravecomb" unicode="&#x300;" horiz-adv-x="0" 
d="M-550 900l-200 200h200l200 -200h-200z" />
    <glyph glyph-name="acutecomb" unicode="&#x301;" horiz-adv-x="0" 
d="M-750 900l200 200h200l-200 -200h-200z" />
    <glyph glyph-name="uni0302" unicode="&#x302;" horiz-adv-x="0" 
d="M-850 900l200 200h200l200 -200h-200l-100 100l-100 -100h-200z" />
    <glyph glyph-name="tildecomb" unicode="&#x303;" horiz-adv-x="0" 
d="M-950 900l200 200h200l100 -100l100 100h200l-200 -200h-200l-100 100l-100 -100h-200z" />
    <glyph glyph-name="uni0304" unicode="&#x304;" horiz-adv-x="0" 
d="M-750 900v200h400v-200h-400z" />
    <glyph glyph-name="uni0306" unicode="&#x306;" horiz-adv-x="0" 
d="M-250 1100v-100l-100 -100h-400l-100 100v100h200v-100h200v100h200z" />
    <glyph glyph-name="uni0307" unicode="&#x307;" horiz-adv-x="0" 
d="M-450 900h-200v200h200v-200z" />
    <glyph glyph-name="uni0308" unicode="&#x308;" horiz-adv-x="0" 
d="M-850 900v200h200v-200h-200zM-450 900v200h200v-200h-200z" />
    <glyph glyph-name="uni030A" unicode="&#x30a;" 
d="M-450 900v100h-200v-100h200zM-850 900v100l100 100h400l100 -100v-100l-100 -100h-400z" />
    <glyph glyph-name="uni030B" unicode="&#x30b;" horiz-adv-x="0" 
d="M-550 900l200 200h200l-200 -200h-200zM-950 900l200 200h200l-200 -200h-200z" />
    <glyph glyph-name="uni030C" unicode="&#x30c;" horiz-adv-x="0" 
d="M-250 1100l-200 -200h-200l-200 200h200l100 -100l100 100h200z" />
    <glyph glyph-name="uni0326" unicode="&#x326;" horiz-adv-x="0" 
d="M-750 -300l200 200h200v-200h-400z" />
    <glyph glyph-name="uni0327" unicode="&#x327;" horiz-adv-x="0" 
d="M-750 -300v200h400l-200 -200h-200z" />
    <glyph glyph-name="uni0328" unicode="&#x328;" horiz-adv-x="0" 
d="M-50 -270h-200l-100 100v70l100 100h200l-100 -100h100v-170z" />
    <glyph glyph-name="uni1E9E" unicode="&#x1e9e;" 
d="M50 141v559l100 100h618l-200 -200h-318v-259zM250 200h600v100h-431l494 500h137v-141l-159 -159h59l100 -100v-300l-100 -100h-900z" />
    <glyph glyph-name="uni2010" unicode="&#x2010;" horiz-adv-x="500" 
d="M50 300v200h400v-200h-400z" />
    <glyph glyph-name="uni2011" unicode="&#x2011;" horiz-adv-x="500" 
d="M50 300v200h400v-200h-400z" />
    <glyph glyph-name="figuredash" unicode="&#x2012;" horiz-adv-x="800" 
d="M50 300v200h700v-200h-700z" />
    <glyph glyph-name="endash" unicode="&#x2013;" horiz-adv-x="800" 
d="M0 300v200h800v-200h-800z" />
    <glyph glyph-name="emdash" unicode="&#x2014;" 
d="M0 300v200h1100v-200h-1100z" />
    <glyph glyph-name="quoteleft" unicode="&#x2018;" horiz-adv-x="300" 
d="M50 500v200l100 100h100v-300h-200z" />
    <glyph glyph-name="quoteright" unicode="&#x2019;" horiz-adv-x="300" 
d="M50 500v300h200v-200l-100 -100h-100z" />
    <glyph glyph-name="quotesinglbase" unicode="&#x201a;" horiz-adv-x="300" 
d="M50 0v300h200v-200l-100 -100h-100z" />
    <glyph glyph-name="quotereversed" unicode="&#x201b;" horiz-adv-x="300" 
d="M150 500l-100 100v200h200v-300h-100z" />
    <glyph glyph-name="quotedblleft" unicode="&#x201c;" horiz-adv-x="600" 
d="M50 500v200l100 100h100v-300h-200zM350 500v200l100 100h100v-300h-200z" />
    <glyph glyph-name="quotedblright" unicode="&#x201d;" horiz-adv-x="600" 
d="M50 500v300h200v-200l-100 -100h-100zM350 500v300h200v-200l-100 -100h-100z" />
    <glyph glyph-name="quotedblbase" unicode="&#x201e;" horiz-adv-x="600" 
d="M50 0v300h200v-200l-100 -100h-100zM350 0v300h200v-200l-100 -100h-100z" />
    <glyph glyph-name="uni201F" unicode="&#x201f;" horiz-adv-x="600" 
d="M50 800h200v-300h-100l-100 100v200zM350 800h200v-300h-100l-100 100v200z" />
    <glyph glyph-name="dagger" unicode="&#x2020;" horiz-adv-x="900" 
d="M350 -200v550l100 100l100 -100v-550h-200zM50 400v200h250l100 -100l-100 -100h-250zM600 400l-100 100l100 100h250v-200h-250zM450 550l-100 100v150h200v-150z" />
    <glyph glyph-name="bullet" unicode="&#x2022;" horiz-adv-x="500" 
d="M50 200v400h400v-400h-400z" />
    <glyph glyph-name="ellipsis" unicode="&#x2026;" 
d="M50 0v200h200v-200h-200zM450 0v200h200v-200h-200zM850 0v200h200v-200h-200z" />
    <glyph glyph-name="uni2027" unicode="&#x2027;" horiz-adv-x="300" 
d="M50 300v200h200v-200h-200z" />
    <glyph glyph-name="minute" unicode="&#x2032;" horiz-adv-x="300" 
d="M50 500v300h200v-200l-100 -100h-100z" />
    <glyph glyph-name="second" unicode="&#x2033;" horiz-adv-x="600" 
d="M50 500v300h200v-200l-100 -100h-100zM350 500v300h200v-200l-100 -100h-100z" />
    <glyph glyph-name="uni2034" unicode="&#x2034;" horiz-adv-x="900" 
d="M650 500v300h200v-200l-100 -100h-100zM350 500v300h200v-200l-100 -100h-100zM50 500v300h200v-200l-100 -100h-100z" />
    <glyph glyph-name="uni2035" unicode="&#x2035;" horiz-adv-x="300" 
d="M150 500l-100 100v200h200v-300h-100z" />
    <glyph glyph-name="uni2036" unicode="&#x2036;" horiz-adv-x="600" 
d="M50 800h200v-300h-100l-100 100v200zM350 800h200v-300h-100l-100 100v200z" />
    <glyph glyph-name="uni2037" unicode="&#x2037;" horiz-adv-x="900" 
d="M750 500l-100 100v200h200v-300h-100zM150 500l-100 100v200h200v-300h-100zM450 500l-100 100v200h200v-300h-100z" />
    <glyph glyph-name="guilsinglleft" unicode="&#x2039;" horiz-adv-x="650" 
d="M350 0l-300 300l300 300h250l-300 -300l300 -300h-250z" />
    <glyph glyph-name="guilsinglright" unicode="&#x203a;" horiz-adv-x="650" 
d="M50 0l300 300l-300 300h250l300 -300l-300 -300h-250z" />
    <glyph glyph-name="Euro" unicode="&#x20ac;" 
d="M250 0l-100 100v125h200v-25h500v100h200v-300h-800zM50 275v100h700v-100h-700zM50 425v100h700v-100h-700zM850 500v100h-500v-25h-200v125l100 100h800v-300h-200z" />
    <glyph glyph-name="trademark" unicode="&#x2122;" horiz-adv-x="1000" 
d="M200 500v200h-150v100h400v-100h-150v-200h-100zM550 500v300h350l50 -50v-250h-100v200h-50v-200h-100v200h-50v-200h-100z" />
    <glyph glyph-name="uni30A1" unicode="&#x30a1;" horiz-adv-x="1000" 
d="M50 0v200h350v200h350v100h-700v200h900v-400l-100 -100h-250v-100l-100 -100h-450z" />
    <glyph glyph-name="uni30A2" unicode="&#x30a2;" 
d="M50 0v200h400v300h400v100h-800v200h1000v-400l-100 -100h-300v-200l-100 -100h-500z" />
    <glyph glyph-name="uni30A3" unicode="&#x30a3;" horiz-adv-x="1000" 
d="M400 0v300h-350v200h700v200h200v-300l-100 -100h-250v-300h-200z" />
    <glyph glyph-name="uni30A4" unicode="&#x30a4;" 
d="M450 0v400h-400v200h800v200h200v-300l-100 -100h-300v-400h-200z" />
    <glyph glyph-name="uni30A5" unicode="&#x30a5;" horiz-adv-x="1000" 
d="M250 0v200h500v200h-500v-100h-200v300h350v100h200v-100h350v-500l-100 -100h-600z" />
    <glyph glyph-name="uni30A6" unicode="&#x30a6;" 
d="M250 0v200h600v300h-600v-200h-200v400h400v100h200v-100h400v-600l-100 -100h-700z" />
    <glyph glyph-name="uni30A7" unicode="&#x30a7;" horiz-adv-x="1000" 
d="M50 0v200h450l-100 100v200h-350v200h900v-200h-350v-300h350v-200h-900z" />
    <glyph glyph-name="uni30A8" unicode="&#x30a8;" 
d="M50 0v200h500l-100 100v300h-400v200h1000v-200h-400v-400h400v-200h-1000z" />
    <glyph glyph-name="uni30A9" unicode="&#x30a9;" horiz-adv-x="1000" 
d="M50 0v200h125l200 200h-325v200h600v100h200v-100h100v-200h-100v-400h-300v200h100v200l-400 -400h-200z" />
    <glyph glyph-name="uni30AA" unicode="&#x30aa;" 
d="M50 0v200h125l300 300h-425v200h700v100h200v-100h100v-200h-100v-500h-400v200h200v300l-500 -500h-200z" />
    <glyph glyph-name="uni30AB" unicode="&#x30ab;" 
d="M50 0v200h200v300h-200v200h200v100h200v-100h600v-600l-100 -100h-400v200h300v300h-400v-400l-100 -100h-300z" />
    <glyph glyph-name="uni30AC" unicode="&#x30ac;" horiz-adv-x="1500" 
d="M50 0v200h200v300h-200v200h200v100h200v-100h600v-600l-100 -100h-400v200h300v300h-400v-400l-100 -100h-300zM1150 600v200h100v-200h-100zM1350 600v200h100v-200h-100z" />
    <glyph glyph-name="uni30AD" unicode="&#x30ad;" 
d="M450 0v100h-400v200h400v200h-400v200h400v100h200v-100h400v-200h-400v-200h400v-200h-400v-100h-200z" />
    <glyph glyph-name="uni30AE" unicode="&#x30ae;" horiz-adv-x="1500" 
d="M450 0v100h-400v200h400v200h-400v200h400v100h200v-100h400v-200h-400v-200h400v-200h-400v-100h-200zM1150 600v200h100v-200h-100zM1350 600v200h100v-200h-100z" />
    <glyph glyph-name="uni30AF" unicode="&#x30af;" 
d="M250 0v200h425l175 175v125h-500v-100l-100 -100h-200v200h100v300h200v-100h700v-400l-300 -300h-500z" />
    <glyph glyph-name="uni30B0" unicode="&#x30b0;" horiz-adv-x="1500" 
d="M250 0v200h425l175 175v125h-500v-100l-100 -100h-200v200h100v300h200v-100h700v-400l-300 -300h-500zM1150 600v200h100v-200h-100zM1350 600v200h100v-200h-100z" />
    <glyph glyph-name="uni30B1" unicode="&#x30b1;" 
d="M250 0v200h325l75 75v225h-300v-100l-100 -100h-200v200h100v300h200v-100h700v-200h-200v-300l-200 -200h-400z" />
    <glyph glyph-name="uni30B2" unicode="&#x30b2;" horiz-adv-x="1500" 
d="M250 0v200h325l75 75v225h-300v-100l-100 -100h-200v200h100v300h200v-100h700v-200h-200v-300l-200 -200h-400zM1150 600v200h100v-200h-100zM1350 600v200h100v-200h-100z" />
    <glyph glyph-name="uni30B3" unicode="&#x30b3;" 
d="M50 0v200h800v400h-800v200h1000v-800h-1000z" />
    <glyph glyph-name="uni30B4" unicode="&#x30b4;" horiz-adv-x="1500" 
d="M50 0v200h800v400h-800v200h1000v-800h-1000zM1150 600v200h100v-200h-100zM1350 600v200h100v-200h-100z" />
    <glyph glyph-name="uni30B5" unicode="&#x30b5;" 
d="M150 0v200h525l75 75v225h-400v-200h-200v200h-100v200h100v100h200v-100h400v100h200v-100h100v-200h-100v-300l-200 -200h-600z" />
    <glyph glyph-name="uni30B6" unicode="&#x30b6;" horiz-adv-x="1500" 
d="M150 0v200h525l75 75v225h-400v-200h-200v200h-100v200h100v100h200v-100h400v100h200v-100h100v-200h-100v-300l-200 -200h-600zM1150 600v200h100v-200h-100zM1350 600v200h100v-200h-100z" />
    <glyph glyph-name="uni30B7" unicode="&#x30b7;" 
d="M50 300v200h500v-200h-500zM50 0v200h625l175 175v325h200v-400l-300 -300h-700zM50 600v200h500v-200h-500z" />
    <glyph glyph-name="uni30B8" unicode="&#x30b8;" horiz-adv-x="1500" 
d="M50 300v200h500v-200h-500zM50 0v200h625l175 175v325h200v-400l-300 -300h-700zM50 600v200h500v-200h-500zM1150 600v200h100v-200h-100zM1350 600v200h100v-200h-100z" />
    <glyph glyph-name="uni30B9" unicode="&#x30b9;" 
d="M50 0v200h200l400 400h-600v200h1000v-75l-325 -325l200 -200h125v-200h-200l-262 262l-263 -262h-275z" />
    <glyph glyph-name="uni30BA" unicode="&#x30ba;" horiz-adv-x="1500" 
d="M50 0v200h200l400 400h-600v200h1000v-75l-325 -325l200 -200h125v-200h-200l-262 262l-263 -262h-275zM1150 600v200h100v-200h-100zM1350 600v200h100v-200h-100z" />
    <glyph glyph-name="uni30BB" unicode="&#x30bb;" 
d="M350 0l-200 200v300h-100v200h100v100h200v-100h700v-400h-200v200h-500v-225l75 -75h625v-200h-700z" />
    <glyph glyph-name="uni30BC" unicode="&#x30bc;" horiz-adv-x="1500" 
d="M350 0l-200 200v300h-100v200h100v100h200v-100h700v-400h-200v200h-500v-225l75 -75h625v-200h-700zM1150 600v200h100v-200h-100zM1350 600v200h100v-200h-100z" />
    <glyph glyph-name="uni30BD" unicode="&#x30bd;" 
d="M150 300l-100 100v400h200v-300h100v-200h-200zM150 0v200h625l75 75v525h200v-600l-200 -200h-700z" />
    <glyph glyph-name="uni30BE" unicode="&#x30be;" horiz-adv-x="1500" 
d="M150 300l-100 100v400h200v-300h100v-200h-200zM150 0v200h625l75 75v525h200v-600l-200 -200h-700zM1150 600v200h100v-200h-100zM1350 600v200h100v-200h-100z" />
    <glyph glyph-name="uni30BF" unicode="&#x30bf;" 
d="M850 500v100h-600v-100h600zM150 0v200h625l75 75v25h-600v-50h-200v550h1000v-600l-200 -200h-700z" />
    <glyph glyph-name="uni30C0" unicode="&#x30c0;" horiz-adv-x="1500" 
d="M850 500v100h-600v-100h600zM150 0v200h625l75 75v25h-600v-50h-200v550h1000v-600l-200 -200h-700zM1150 600v200h100v-200h-100zM1350 600v200h100v-200h-100z" />
    <glyph glyph-name="uni30C1" unicode="&#x30c1;" 
d="M150 0v200h400v100h-500v200h500v50h-400v200h600v50h200v-150l-100 -100h-100v-50h300v-200h-300v-200l-100 -100h-500z" />
    <glyph glyph-name="uni30C2" unicode="&#x30c2;" horiz-adv-x="1400" 
d="M150 0v200h400v100h-500v200h500v50h-400v200h600v50h200v-150l-100 -100h-100v-50h300v-200h-300v-200l-100 -100h-500zM1050 600v200h100v-200h-100zM1250 600v200h100v-200h-100z" />
    <glyph glyph-name="uni30C3" unicode="&#x30c3;" horiz-adv-x="1000" 
d="M50 400v300h200v-300h-200zM400 400v300h200v-300h-200zM150 0v200h525l75 75v425h200v-500l-200 -200h-600z" />
    <glyph glyph-name="uni30C4" unicode="&#x30c4;" 
d="M50 400v400h200v-400h-200zM450 400v400h200v-400h-200zM150 0v200h625l75 75v525h200v-600l-200 -200h-700z" />
    <glyph glyph-name="uni30C5" unicode="&#x30c5;" horiz-adv-x="1500" 
d="M50 400v400h200v-400h-200zM450 400v400h200v-400h-200zM150 0v200h625l75 75v525h200v-600l-200 -200h-700zM1150 600v200h100v-200h-100zM1350 600v200h100v-200h-100z" />
    <glyph glyph-name="uni30C6" unicode="&#x30c6;" 
d="M150 0v200h400v100h-500v200h1000v-200h-300v-200l-100 -100h-500zM150 600v200h800v-200h-800z" />
    <glyph glyph-name="uni30C7" unicode="&#x30c7;" horiz-adv-x="1400" 
d="M150 0v200h400v100h-500v200h1000v-200h-300v-200l-100 -100h-500zM150 600v200h800v-200h-800zM1050 600v200h100v-200h-100zM1250 600v200h100v-200h-100z" />
    <glyph glyph-name="uni30C8" unicode="&#x30c8;" 
d="M50 0v800h200v-300h800v-200h-700l-100 100v-400h-200z" />
    <glyph glyph-name="uni30C9" unicode="&#x30c9;" 
d="M50 0v800h200v-300h800v-200h-700l-100 100v-400h-200zM750 600v200h100v-200h-100zM950 600v200h100v-200h-100z" />
    <glyph glyph-name="uni30CA" unicode="&#x30ca;" 
d="M150 0v200h516l84 84v216h-700v200h700v100h200v-100h100v-200h-100v-300l-200 -200h-600z" />
    <glyph glyph-name="uni30CB" unicode="&#x30cb;" 
d="M50 0v200h1000v-200h-1000zM150 600v200h800v-200h-800z" />
    <glyph glyph-name="uni30CC" unicode="&#x30cc;" 
d="M50 0v200h200l100 100h-200v200h400l100 100h-600v200h1000v-82l-321 -322l196 -196h125v-200h-200l-259 259l-258 -259h-283z" />
    <glyph glyph-name="uni30CD" unicode="&#x30cd;" 
d="M50 0v200h75l200 200h375l100 100h-750v200h400v100h200v-100h400v-225l-175 -175l100 -100h75v-200h-150l-200 200h-50v-200h-200v200h-50l-200 -200h-150z" />
    <glyph glyph-name="uni30CE" unicode="&#x30ce;" 
d="M666 200l184 183v417h200v-500l-300 -300h-700v200h616z" />
    <glyph glyph-name="uni30CF" unicode="&#x30cf;" 
d="M50 0v200h100v600h200v-700l-100 -100h-200zM850 0l-100 100v700h200v-600h100v-200h-200z" />
    <glyph glyph-name="uni30D0" unicode="&#x30d0;" horiz-adv-x="1400" 
d="M50 0v200h100v600h200v-700l-100 -100h-200zM850 0l-100 100v700h200v-600h100v-200h-200zM1050 600v200h100v-200h-100zM1250 600v200h100v-200h-100z" />
    <glyph glyph-name="uni30D1" unicode="&#x30d1;" horiz-adv-x="1400" 
d="M1225 600l25 25v50l-25 25h-50l-25 -25v-50l25 -25h50zM50 0v200h100v600h200v-700l-100 -100h-200zM850 0l-100 100v700h200v-600h100v-200h-200zM1150 500l-100 100v100l100 100h100l100 -100v-100l-100 -100h-100z" />
    <glyph glyph-name="uni30D2" unicode="&#x30d2;" 
d="M150 0l-100 100v700h200v-300l100 100h700v-200h-800v-200h600v100h200v-300h-900z" />
    <glyph glyph-name="uni30D3" unicode="&#x30d3;" horiz-adv-x="1500" 
d="M150 0l-100 100v700h200v-300l100 100h700v-200h-800v-200h600v100h200v-300h-900zM1150 600v200h100v-200h-100zM1350 600v200h100v-200h-100z" />
    <glyph glyph-name="uni30D4" unicode="&#x30d4;" horiz-adv-x="1500" 
d="M1325 600l25 25v50l-25 25h-50l-25 -25v-50l25 -25h50zM150 0l-100 100v700h200v-300l100 100h700v-200h-800v-200h600v100h200v-300h-900zM1250 500l-100 100v100l100 100h100l100 -100v-100l-100 -100h-100z" />
    <glyph glyph-name="uni30D5" unicode="&#x30d5;" 
d="M666 200l184 183v217h-800v200h1000v-500l-300 -300h-700v200h616z" />
    <glyph glyph-name="uni30D6" unicode="&#x30d6;" horiz-adv-x="1500" 
d="M666 200l184 183v217h-800v200h1000v-500l-300 -300h-700v200h616zM1150 600v200h100v-200h-100zM1350 600v200h100v-200h-100z" />
    <glyph glyph-name="uni30D7" unicode="&#x30d7;" horiz-adv-x="1500" 
d="M666 200l184 183v217h-800v200h1000v-500l-300 -300h-700v200h616zM1325 600l25 25v50l-25 25h-50l-25 -25v-50l25 -25h50zM1250 500l-100 100v100l100 100h100l100 -100v-100l-100 -100h-100z" />
    <glyph glyph-name="uni30D8" unicode="&#x30d8;" 
d="M650 0l-100 100v500h-200v-300l-100 -100h-200v200h100v400h500l100 -100v-500h300v-200h-400z" />
    <glyph glyph-name="uni30D9" unicode="&#x30d9;" horiz-adv-x="1200" 
d="M650 0l-100 100v500h-200v-300l-100 -100h-200v200h100v400h500l100 -100v-500h300v-200h-400zM850 600v200h100v-200h-100zM1050 600v200h100v-200h-100z" />
    <glyph glyph-name="uni30DA" unicode="&#x30da;" horiz-adv-x="1200" 
d="M1025 600l25 25v50l-25 25h-50l-25 -25v-50l25 -25h50zM650 0l-100 100v500h-200v-300l-100 -100h-200v200h100v400h500l100 -100v-500h300v-200h-400zM950 500l-100 100v100l100 100h100l100 -100v-100l-100 -100h-100z" />
    <glyph glyph-name="uni30DB" unicode="&#x30db;" 
d="M50 0v300l100 100h100v-400h-200zM850 0v400h100l100 -100v-300h-200zM450 0v500h-400v200h400v100h200v-100h400v-200h-400v-500h-200z" />
    <glyph glyph-name="uni30DC" unicode="&#x30dc;" horiz-adv-x="1500" 
d="M50 0v300l100 100h100v-400h-200zM850 0v400h100l100 -100v-300h-200zM450 0v500h-400v200h400v100h200v-100h400v-200h-400v-500h-200zM1150 600v200h100v-200h-100zM1350 600v200h100v-200h-100z" />
    <glyph glyph-name="uni30DD" unicode="&#x30dd;" horiz-adv-x="1500" 
d="M50 0v300l100 100h100v-400h-200zM850 0v400h100l100 -100v-300h-200zM1325 600l25 25v50l-25 25h-50l-25 -25v-50l25 -25h50zM450 0v500h-400v200h400v100h200v-100h400v-200h-400v-500h-200zM1250 500l-100 100v100l100 100h100l100 -100v-100l-100 -100h-100z" />
    <glyph glyph-name="uni30DE" unicode="&#x30de;" 
d="M450 0l-400 400v100h175l100 -100h525v200h-800v200h1000v-500l-100 -100h-425l200 -200h-275z" />
    <glyph glyph-name="uni30DF" unicode="&#x30df;" 
d="M150 0l-100 100v100h1000v-200h-900zM350 300l-200 200h600l200 -200h-600zM50 600v200h900l100 -100v-100h-1000z" />
    <glyph glyph-name="uni30E0" unicode="&#x30e0;" 
d="M50 0v800h200v-600h600v300h200v-500h-200v100l-100 -100h-700z" />
    <glyph glyph-name="uni30E1" unicode="&#x30e1;" 
d="M50 0v200h525l37 38l-62 62h-300v200h300l162 -162l38 37v425h200v-500l-100 -100h200v-200h-200l-100 100l-100 -100h-600z" />
    <glyph glyph-name="uni30E2" unicode="&#x30e2;" 
d="M450 0l-100 100v200h-300v200h300v100h-200v200h800v-200h-400v-100h500v-200h-500v-100h400v-200h-500z" />
    <glyph glyph-name="uni30E3" unicode="&#x30e3;" horiz-adv-x="1000" 
d="M150 0v400h-100v200h100v100h200v-100h600v-400l-100 -100h-300v200h200v100h-400v-400h-200z" />
    <glyph glyph-name="uni30E4" unicode="&#x30e4;" 
d="M150 0v500h-100v200h100v100h200v-100h700v-500l-100 -100h-300v200h200v200h-500v-500h-200z" />
    <glyph glyph-name="uni30E5" unicode="&#x30e5;" horiz-adv-x="1000" 
d="M50 0v200h600v300h-500v200h700v-500h100v-200h-900z" />
    <glyph glyph-name="uni30E6" unicode="&#x30e6;" 
d="M50 0v200h700v400h-600v200h800v-600h100v-200h-1000z" />
    <glyph glyph-name="uni30E7" unicode="&#x30e7;" horiz-adv-x="1000" 
d="M50 0v200h700v50h-600v200h600v50h-700v200h900v-700h-900z" />
    <glyph glyph-name="uni30E8" unicode="&#x30e8;" 
d="M50 0v200h800v100h-700v200h700v100h-800v200h1000v-800h-1000z" />
    <glyph glyph-name="uni30E9" unicode="&#x30e9;" 
d="M150 0v200h700v100h-800v200h1000v-400l-100 -100h-800zM150 600v200h800v-200h-800z" />
    <glyph glyph-name="uni30EA" unicode="&#x30ea;" 
d="M50 300v500h200v-500h-200zM650 0v75l200 200v525h200v-600l-200 -200h-200z" />
    <glyph glyph-name="uni30EB" unicode="&#x30eb;" 
d="M50 0v600l100 100h100v-700h-200zM450 0v800h200v-600h200v500h200v-600l-100 -100h-500z" />
    <glyph glyph-name="uni30EC" unicode="&#x30ec;" 
d="M50 0v800h200v-600h425l175 175v225h200v-300l-300 -300h-700z" />
    <glyph glyph-name="uni30ED" unicode="&#x30ed;" 
d="M950 200l-100 100v300h-600v-400h700zM50 0v800h1000v-800h-1000z" />
    <glyph glyph-name="uni30EE" unicode="&#x30ee;" horiz-adv-x="1000" 
d="M150 0v200h525l75 75v225h-500v-200h-200v400h900v-500l-200 -200h-600z" />
    <glyph glyph-name="uni30EF" unicode="&#x30ef;" 
d="M150 0v200h525l175 175v225h-600v-200h-200v400h1000v-500l-300 -300h-600z" />
    <glyph glyph-name="uni30F2" unicode="&#x30f2;" 
d="M150 0v200h525l100 100h-625v200h700v100h-800v200h1000v-500l-300 -300h-600z" />
    <glyph glyph-name="uni30F3" unicode="&#x30f3;" 
d="M50 0v200h616l184 183v217h200v-300l-300 -300h-700zM50 600v200h500v-200h-500z" />
    <glyph glyph-name="uni30F4" unicode="&#x30f4;" horiz-adv-x="1500" 
d="M250 0v200h600v300h-600v-200h-200v400h400v100h200v-100h400v-600l-100 -100h-700zM1150 600v200h100v-200h-100zM1350 600v200h100v-200h-100z" />
    <glyph glyph-name="uni30FB" unicode="&#x30fb;" 
d="M50 300v200h200v-200h-200z" />
    <glyph glyph-name="uni30FC" unicode="&#x30fc;" 
d="M50 300v200h1000v-200h-1000z" />
    <glyph glyph-name="uni30FD" unicode="&#x30fd;" horiz-adv-x="700" 
d="M412 200l-200 200h-162v200h238l200 -200h162v-200h-238z" />
    <glyph glyph-name="uni30FE" unicode="&#x30fe;" horiz-adv-x="800" 
d="M412 200l-200 200h-162v200h238l200 -200h162v-200h-238zM450 600v200h100v-200h-100zM650 600v200h100v-200h-100z" />
    <glyph glyph-name="uniFB01" unicode="&#xfb01;" 
d="M150 0v300h-100v200h100v200l100 100h800v-200h-700v-100h700v-500h-200v400l-100 -100h-400v-300h-200z" />
    <glyph glyph-name="uniFB02" unicode="&#xfb02;" 
d="M150 0v300h-100v200h100v200l100 100h800v-800h-200v700l-100 -100h-400v-100h400v-200h-400v-300h-200z" />
    <glyph glyph-name="uniFFFD" unicode="&#xfffd;" horiz-adv-x="1200" 
d="M0 -100v1000h1200v-1000h-1200zM300 0h200v200h-200v-200zM300 300h800v400l-100 100h-900v-200h800v-100h-500l-100 -100v-100z" />
    </font>
</defs>
</svg>
